<svg width="231" height="176" viewBox="0 0 231 176" fill="none" xmlns="http://www.w3.org/2000/svg">
<g opacity="0.01">
<path d="M44.3584 175.117L45.0666 174.415C45.2473 174.597 45.4522 174.734 45.6873 174.832L45.3038 175.756L45.6873 174.832C45.9247 174.931 46.1628 174.979 46.4195 174.979H96.8367C97.0847 174.979 97.3332 174.93 97.5689 174.832C97.804 174.734 98.0089 174.597 98.1896 174.415C98.3703 174.232 98.5077 174.025 98.6054 173.785C98.7041 173.543 98.7523 173.3 98.7523 173.038V92.7352C98.7523 92.4729 98.7041 92.2296 98.6054 91.9879C98.5077 91.7484 98.3703 91.5408 98.1896 91.3585C98.0089 91.1762 97.804 91.0386 97.5689 90.941C97.3332 90.8431 97.0847 90.7945 96.8367 90.7945H46.4195C46.1628 90.7945 45.9247 90.8424 45.6873 90.941C45.4522 91.0386 45.2473 91.1762 45.0666 91.3585L44.3584 175.117ZM44.3584 175.117L45.0666 174.415C44.8859 174.232 44.7485 174.025 44.6508 173.785M44.3584 175.117L44.6508 173.785M44.6508 173.785C44.5521 173.543 44.5039 173.3 44.5039 173.038M44.6508 173.785L44.5039 173.038M44.5039 173.038V92.7352M44.5039 173.038V92.7352M44.5039 92.7352C44.5039 92.4729 44.5521 92.2296 44.6508 91.9879M44.5039 92.7352L44.6508 91.9879M44.6508 91.9879C44.7485 91.7484 44.8859 91.5408 45.0666 91.3585L44.6508 91.9879Z" stroke="#DDE1EB" stroke-width="2"/>
<path d="M97.572 -77.0309L97.5835 -77.0258L97.595 -77.021C97.8302 -76.9233 98.035 -76.7857 98.2157 -76.6034L98.9259 -77.3075L98.2157 -76.6034C98.3965 -76.4211 98.5338 -76.2136 98.6316 -75.9741C98.7303 -75.7323 98.7785 -75.4891 98.7785 -75.2267V77.7452C98.7785 78.0112 98.7289 78.2648 98.6316 78.5032C98.5338 78.7427 98.3965 78.9503 98.2157 79.1326C98.035 79.3148 97.8302 79.4524 97.5951 79.5501L97.9786 80.4736L97.595 79.5501C97.3594 79.648 97.1108 79.6966 96.8629 79.6966H46.4456C46.189 79.6966 45.9509 79.6487 45.7135 79.5501L45.3299 80.4736L45.7135 79.5501C45.4783 79.4524 45.2735 79.3148 45.0928 79.1326C44.912 78.9503 44.7747 78.7427 44.6769 78.5032C44.5726 78.2476 44.5195 77.9935 44.5195 77.7452V-75.2267C44.5195 -75.4714 44.571 -75.7147 44.6769 -75.9741L44.6769 -75.9741C44.7747 -76.2136 44.912 -76.4211 45.0928 -76.6034L45.0928 -76.6034C45.2735 -76.7857 45.4783 -76.9233 45.7135 -77.021L45.725 -77.0258L45.7365 -77.0309C45.9605 -77.1305 46.1897 -77.178 46.4456 -77.178H96.8629C97.1103 -77.178 97.3497 -77.1298 97.572 -77.0309ZM44.3849 -77.3052L44.3834 -77.3067L44.3849 -77.3052Z" stroke="#DDE1EB" stroke-width="2"/>
<path d="M109.773 -75.1058C109.773 -76.2367 110.69 -77.1534 111.821 -77.1534H161.974C163.105 -77.1534 164.022 -76.2367 164.022 -75.1058V30.0165C164.022 31.1473 163.105 32.0641 161.974 32.0641H111.821C110.69 32.0641 109.773 31.1473 109.773 30.0165V-75.1058Z" stroke="#DDE1EB" stroke-width="2"/>
<path d="M110.313 43.7229C110.493 43.5406 110.698 43.403 110.933 43.3054L110.933 43.3054C111.171 43.2068 111.409 43.1589 111.666 43.1589H162.083C162.331 43.1589 162.579 43.2075 162.815 43.3054L163.199 42.3818L162.815 43.3054C163.05 43.403 163.255 43.5406 163.436 43.7229C163.616 43.9052 163.754 44.1128 163.852 44.3523C163.95 44.594 163.998 44.8373 163.998 45.0997V173.049C163.998 173.311 163.95 173.554 163.852 173.796C163.754 174.036 163.616 174.243 163.436 174.425C163.255 174.608 163.05 174.745 162.815 174.843L162.803 174.848L162.792 174.853C162.57 174.952 162.33 175 162.083 175H111.666C111.41 175 111.18 174.953 110.956 174.853L110.945 174.848L110.933 174.843C110.698 174.745 110.493 174.608 110.313 174.425C110.132 174.243 109.995 174.036 109.897 173.796C109.798 173.554 109.75 173.311 109.75 173.049V45.0997C109.75 44.8373 109.798 44.594 109.897 44.3523C109.995 44.1128 110.132 43.9052 110.313 43.7229ZM110.313 43.7229L109.603 43.0188L110.313 43.7229Z" stroke="#DDE1EB" stroke-width="2"/>
<path d="M227.205 -15.1011C228.336 -15.1011 229.252 -14.1844 229.252 -13.0535V172.934C229.252 174.065 228.336 174.982 227.205 174.982H177.052C175.921 174.982 175.004 174.065 175.004 172.934V-13.0535C175.004 -14.1844 175.921 -15.1011 177.052 -15.1011H227.205Z" stroke="#DDE1EB" stroke-width="2"/>
<path d="M229.002 -89.4601L229.007 -89.4714C229.107 -89.6998 229.155 -89.9342 229.155 -90.196V-141.049C229.155 -141.311 229.107 -141.554 229.008 -141.796L229.008 -141.796C228.912 -142.033 228.777 -142.238 228.599 -142.419C228.402 -142.609 228.193 -142.747 227.961 -142.843L227.951 -142.847L227.951 -142.847C227.718 -142.947 227.473 -143 227.229 -143H-84.0739C-84.3126 -143 -84.5508 -142.949 -84.8061 -142.843C-85.0412 -142.745 -85.2461 -142.608 -85.4268 -142.425L-85.4268 -142.425C-85.6187 -142.232 -85.7611 -142.022 -85.8531 -141.796M229.002 -89.4601L-32.5515 175.703C-32.9093 175.851 -33.2777 175.926 -33.6672 175.926H-84.0739C-84.4633 175.926 -84.8317 175.851 -85.1896 175.703L-84.806 174.779C-84.806 174.779 -84.8061 174.779 -84.8061 174.779C-85.0412 174.682 -85.2461 174.544 -85.4268 174.362L-86.1364 175.065L-85.4268 174.362C-85.6044 174.182 -85.7461 173.973 -85.8576 173.721C-85.9533 173.483 -86 173.243 -86 172.985V-141.049C-86 -141.311 -85.9518 -141.554 -85.8531 -141.796M229.002 -89.4601L228.998 -89.4486M229.002 -89.4601L228.998 -89.4486M-85.8531 -141.796L-86.7761 -142.173L-85.8531 -141.796ZM228.998 -89.4486C228.9 -89.2091 228.763 -89.0015 228.582 -88.8193C228.401 -88.637 228.196 -88.4994 227.961 -88.4017L228.345 -87.4782L228.998 -89.4486Z" stroke="#DDE1EB" stroke-width="2"/>
<path d="M32.3115 -77.0309L32.3229 -77.0258L32.3345 -77.021C32.5697 -76.9233 32.7745 -76.7857 32.9552 -76.6034L33.6637 -77.3058L32.9552 -76.6034C33.136 -76.4211 33.2733 -76.2136 33.3711 -75.9741C33.4698 -75.7323 33.5179 -75.4891 33.5179 -75.2267V52.786C33.5179 53.0484 33.4698 53.2916 33.3711 53.5334C33.2733 53.7729 33.1359 53.9805 32.9552 54.1628C32.7745 54.345 32.5697 54.4826 32.3345 54.5803L32.7181 55.5038L32.3345 54.5803C32.0971 54.6789 31.859 54.7267 31.6024 54.7267H-18.8149C-19.0715 54.7267 -19.3097 54.6789 -19.547 54.5803L-19.93 55.5023L-19.5471 54.5803C-19.7822 54.4826 -19.9871 54.345 -20.1678 54.1627C-20.3485 53.9805 -20.4858 53.7729 -20.5836 53.5334C-20.6823 53.2916 -20.7305 53.0484 -20.7305 52.786V-75.2267C-20.7305 -75.4891 -20.6823 -75.7323 -20.5836 -75.9741L-20.5836 -75.9741C-20.4858 -76.2136 -20.3485 -76.4211 -20.1678 -76.6034L-20.1678 -76.6034C-19.9871 -76.7857 -19.7822 -76.9233 -19.547 -77.021L-19.5355 -77.0258L-19.5241 -77.0309C-19.3001 -77.1305 -19.0709 -77.178 -18.8149 -77.178H31.6024C31.8583 -77.178 32.0875 -77.1305 32.3115 -77.0309ZM-21.5083 -76.3515L-21.5094 -76.352L-21.5083 -76.3515Z" stroke="#DDE1EB" stroke-width="2"/>
</g>
</svg>
