<?xml version="1.0" standalone="no"?>
<!DOCTYPE svg PUBLIC "-//W3C//DTD SVG 1.1//EN" "http://www.w3.org/Graphics/SVG/1.1/DTD/svg11.dtd" >
<svg xmlns="http://www.w3.org/2000/svg">
<metadata>Generated by IcoMoon</metadata>
<defs>
<font id="icomoon" horiz-adv-x="1024">
<font-face units-per-em="1024" ascent="960" descent="-64" />
<missing-glyph horiz-adv-x="1024" />
<glyph unicode="&#x20;" horiz-adv-x="512" d="" />
<glyph unicode="&#xe900;" glyph-name="arrow" d="M197.96 448.27c0 20.361 16.504 36.864 36.864 36.864h573.44c20.361 0 36.864-16.503 36.864-36.864 0-20.357-16.503-36.864-36.864-36.864h-573.44c-20.36 0-36.864 16.507-36.864 36.864zM208.757 474.337c14.396 14.397 37.737 14.397 52.133 0l163.84-163.84c14.397-14.393 14.397-37.736 0-52.13-14.397-14.397-37.737-14.397-52.133 0l-163.84 163.84c-14.396 14.393-14.396 37.736 0 52.13zM424.731 638.179c14.397-14.396 14.397-37.737 0-52.133l-163.84-163.838c-14.396-14.397-37.737-14.397-52.133 0-14.396 14.393-14.396 37.736 0 52.13l163.84 163.842c14.396 14.396 37.736 14.396 52.133 0z" />
<glyph unicode="&#xe901;" glyph-name="youtube" d="M1001.344 707.029l1.284-8.363c-12.373 43.904-45.786 77.781-88.239 90.112l-0.896 0.213c-79.829 21.675-401.062 21.675-401.062 21.675s-320.429 0.427-401.069-21.675c-43.264-12.544-76.715-46.421-88.875-89.429l-0.213-0.896c-29.824-155.776-30.037-342.954 1.323-509.738l-1.323 8.448c12.373-43.904 45.781-77.781 88.235-90.112l0.896-0.213c79.744-21.717 401.069-21.717 401.069-21.717s320.38 0 401.062 21.717c43.307 12.544 76.762 46.421 88.922 89.429l0.209 0.896c13.568 72.448 21.333 155.819 21.333 240.981 0 3.115 0.004 6.272-0.038 9.429 0.043 2.901 0.038 6.357 0.038 9.813 0 85.205-7.765 168.576-22.656 249.429zM409.943 292.224v311.168l267.351-155.818-267.351-155.349z" />
<glyph unicode="&#xe902;" glyph-name="avatar" d="M510.611 788.053c-180.328 0-326.511-146.183-326.511-326.508s146.183-326.513 326.511-326.513c180.326 0 326.509 146.186 326.509 326.513 0 180.324-146.182 326.508-326.509 326.508zM99.84 461.545c0 226.86 183.908 410.768 410.771 410.768 226.861 0 410.767-183.908 410.767-410.768 0-226.865-183.906-410.771-410.767-410.771-226.864 0-410.771 183.906-410.771 410.771zM510.611 624.213c-44.597 0-80.753-36.153-80.753-80.748 0-44.597 36.155-80.753 80.753-80.753s80.749 36.155 80.749 80.753c0 44.595-36.151 80.748-80.749 80.748zM345.6 543.465c0 91.131 73.88 165.008 165.011 165.008s165.007-73.878 165.007-165.008c0-91.136-73.875-165.011-165.007-165.011s-165.011 73.875-165.011 165.011zM709.202 168.702c-15.405 51.565-62.841 86.888-116.658 86.872h-163.852c-53.744 0.016-101.147-35.217-116.611-86.688-6.695-22.286-30.188-34.922-52.471-28.226-22.284 6.693-34.921 30.188-28.226 52.47 26.169 87.097 106.364 146.723 197.308 146.702 0.004 0-0.004 0 0 0h163.824c0.004 0-0.004 0 0 0 91.066 0.025 171.356-59.752 197.423-147.010 6.66-22.295-6.013-45.769-28.307-52.429s-45.769 6.013-52.429 28.307z" />
<glyph unicode="&#xe903;" glyph-name="calculator" d="M172.69 762.105c0 50.899 41.261 92.16 92.16 92.16h532.482c50.897 0 92.16-41.261 92.16-92.16v-614.4c0-50.897-41.263-92.16-92.16-92.16h-532.482c-50.899 0-92.16 41.263-92.16 92.16v614.4zM264.85 792.825c-16.966 0-30.72-13.754-30.72-30.72v-614.4c0-16.966 13.754-30.72 30.72-30.72h532.482c16.966 0 30.72 13.754 30.72 30.72v614.4c0 16.966-13.754 30.72-30.72 30.72h-532.482zM336.53 639.225c0 28.277 22.923 51.2 51.2 51.2h286.722c28.275 0 51.2-22.923 51.2-51.2v-81.92c0-28.278-22.925-51.2-51.2-51.2h-286.722c-28.277 0-51.2 22.921-51.2 51.2v81.92zM397.97 628.985v-61.44h266.242v61.44h-266.242zM367.25 403.706c16.966 0 30.72-13.754 30.72-30.72v-0.41c0-16.966-13.754-30.72-30.72-30.72s-30.72 13.754-30.72 30.72v0.41c0 16.966 13.754 30.72 30.72 30.72zM531.091 403.706c16.966 0 30.72-13.754 30.72-30.72v-0.41c0-16.966-13.754-30.72-30.72-30.72s-30.72 13.754-30.72 30.72v0.41c0 16.966 13.754 30.72 30.72 30.72zM694.931 403.706c16.966 0 30.72-13.754 30.72-30.72v-0.41c0-16.966-13.754-30.72-30.72-30.72s-30.72 13.754-30.72 30.72v0.41c0 16.966 13.754 30.72 30.72 30.72zM367.25 280.826c16.966 0 30.72-13.754 30.72-30.72v-0.41c0-16.966-13.754-30.72-30.72-30.72s-30.72 13.754-30.72 30.72v0.41c0 16.966 13.754 30.72 30.72 30.72zM531.091 280.826c16.966 0 30.72-13.754 30.72-30.72v-0.41c0-16.966-13.754-30.72-30.72-30.72s-30.72 13.754-30.72 30.72v0.41c0 16.966 13.754 30.72 30.72 30.72zM694.931 280.826c16.966 0 30.72-13.754 30.72-30.72v-0.41c0-16.966-13.754-30.72-30.72-30.72s-30.72 13.754-30.72 30.72v0.41c0 16.966 13.754 30.72 30.72 30.72z" />
<glyph unicode="&#xe904;" glyph-name="calendar-1" d="M138.667 682.268c0 53.019 42.981 96 96 96h554.667c53.018 0 96-42.981 96-96v-554.665c0-53.022-42.982-96-96-96h-554.667c-53.019 0-96 42.978-96 96v554.665zM234.667 714.268c-17.673 0-32-14.327-32-32v-554.665c0-17.677 14.327-32 32-32h554.667c17.673 0 32 14.323 32 32v554.665c0 17.673-14.327 32-32 32h-554.667zM682.667 863.601c17.673 0 32-14.327 32-32v-170.667c0-17.673-14.327-32-32-32s-32 14.327-32 32v170.667c0 17.673 14.327 32 32 32zM341.333 863.601c17.673 0 32-14.327 32-32v-170.667c0-17.673-14.327-32-32-32s-32 14.327-32 32v170.667c0 17.673 14.327 32 32 32zM138.667 490.27c0 17.673 14.327 32 32 32h682.667c17.673 0 32-14.327 32-32 0-17.677-14.327-32-32-32h-682.667c-17.673 0-32 14.323-32 32zM437.333 319.603c0 17.673 14.327 32 32 32h42.667c17.673 0 32-14.327 32-32 0-17.677-14.327-32-32-32h-42.667c-17.673 0-32 14.323-32 32zM512 351.603c17.673 0 32-14.327 32-32v-128c0-17.677-14.327-32-32-32s-32 14.323-32 32v128c0 17.673 14.327 32 32 32z" />
<glyph unicode="&#xe905;" glyph-name="calendar" d="M132.266 618.666c0 91.9 74.499 166.4 166.4 166.4h426.668c91.9 0 166.4-74.499 166.4-166.4v-426.666c0-91.9-74.5-166.4-166.4-166.4h-426.668c-91.9 0-166.4 74.5-166.4 166.4v426.666zM298.666 708.266c-49.485 0-89.6-40.115-89.6-89.6v-426.666c0-49.485 40.115-89.6 89.6-89.6h426.668c49.485 0 89.6 40.115 89.6 89.6v426.666c0 49.485-40.115 89.6-89.6 89.6h-426.668zM682.667 870.4c21.205 0 38.4-17.192 38.4-38.4v-170.667c0-21.207-17.195-38.4-38.4-38.4-21.21 0-38.4 17.193-38.4 38.4v170.667c0 21.208 17.19 38.4 38.4 38.4zM341.332 870.4c21.207 0 38.4-17.192 38.4-38.4v-170.667c0-21.207-17.193-38.4-38.4-38.4s-38.4 17.193-38.4 38.4v170.667c0 21.208 17.192 38.4 38.4 38.4zM132.266 490.667c0 21.21 17.192 38.4 38.4 38.4h682.668c21.205 0 38.4-17.19 38.4-38.4s-17.195-38.4-38.4-38.4h-682.668c-21.208 0-38.4 17.19-38.4 38.4zM302.932 320c0 21.21 17.192 38.4 38.4 38.4h85.333c21.206 0 38.401-17.19 38.401-38.4v-85.333c0-21.21-17.195-38.4-38.401-38.4h-85.333c-21.208 0-38.4 17.19-38.4 38.4v85.333zM379.732 281.6v-8.533h8.533v8.533h-8.533z" />
<glyph unicode="&#xe906;" glyph-name="call" d="M164.668 695.004c0.517 24.435 20.487 44.085 45.046 44.085h138.882l60.991-152.478-75.479-45.287c-16.451-9.871-22.581-30.712-14.095-47.915 47.455-96.223 125.334-174.1 221.557-221.557 17.207-8.487 38.044-2.355 47.915 14.094l45.289 75.481 152.478-60.994v-138.883c0-24.556-19.653-44.528-44.085-45.044-311.030 19.53-558.966 267.465-578.498 578.497zM209.714 812.816c-65.603 0-118.784-53.182-118.784-118.784 0-0.746 0.023-1.492 0.068-2.236 21.223-349.243 299.718-627.735 648.961-648.96 0.745-0.045 1.491-0.070 2.236-0.070 65.602 0 118.784 53.182 118.784 118.784v163.84c0 15.077-9.179 28.631-23.175 34.23l-204.8 81.92c-16.798 6.717-35.992 0.254-45.302-15.262l-43.258-72.098c-58.319 34.968-107.135 83.78-142.1 142.103l72.095 43.258c15.516 9.31 21.983 28.502 15.262 45.302l-81.92 204.8c-5.598 13.996-19.154 23.173-34.227 23.173h-163.84z" />
<glyph unicode="&#xe907;" glyph-name="certificate" d="M597.333 864c17.673 0 32-14.327 32-32v-170.667c0-5.891 4.774-10.667 10.667-10.667h170.667c17.673 0 32-14.327 32-32s-14.327-32-32-32h-170.667c-41.237 0-74.667 33.429-74.667 74.667v170.667c0 17.673 14.327 32 32 32zM298.667 800c-29.455 0-53.333-23.878-53.333-53.333v-128c0-17.673-14.327-32-32-32s-32 14.327-32 32v128c0 64.801 52.532 117.333 117.333 117.333h298.667c8.486 0 16.627-3.372 22.626-9.373l213.333-213.333c6.003-6.001 9.374-14.141 9.374-22.627v-469.333c0-64.802-52.531-117.333-117.333-117.333h-213.333c-17.673 0-32 14.327-32 32s14.327 32 32 32h213.333c29.457 0 53.333 23.876 53.333 53.333v456.079l-194.59 194.588h-285.41zM256 458.667c-53.019 0-96-42.982-96-96s42.981-96 96-96c53.019 0 96 42.982 96 96s-42.981 96-96 96zM96 362.667c0 88.367 71.634 160 160 160s160-71.633 160-160c0-88.367-71.634-160-160-160s-160 71.633-160 160zM201.196 265.318c16.928-5.082 26.534-22.921 21.455-39.846l-42.718-142.396 61.757 30.878c9.009 4.506 19.613 4.506 28.622 0l61.757-30.878-42.719 142.396c-5.078 16.926 4.528 34.765 21.455 39.846 16.928 5.077 34.767-4.531 39.846-21.457l64-213.333c3.668-12.228-0.282-25.468-10.052-33.685s-23.49-9.839-34.909-4.13l-113.689 56.845-113.689-56.845c-11.418-5.709-25.138-4.087-34.909 4.13s-13.721 21.457-10.053 33.685l64 213.333c5.079 16.926 22.918 26.534 39.846 21.457z" />
<glyph unicode="&#xe908;" glyph-name="chevron" d="M369.687 722.723c15.996 15.996 41.928 15.996 57.927 0l245.76-245.76c15.995-15.995 15.995-41.931 0-57.926l-245.76-245.76c-15.999-15.995-41.932-15.995-57.927 0s-15.996 41.931 0 57.926l216.799 216.797-216.799 216.797c-15.996 15.996-15.996 41.93 0 57.926z" />
<glyph unicode="&#xe909;" glyph-name="clock-1" d="M512.299 766.013c-183.235 0-331.776-148.541-331.776-331.776s148.541-331.776 331.776-331.776c183.235 0 331.776 148.541 331.776 331.776s-148.541 331.776-331.776 331.776zM106.795 434.237c0 223.953 181.55 405.504 405.504 405.504s405.504-181.551 405.504-405.504c0-223.953-181.551-405.504-405.504-405.504s-405.504 181.551-405.504 405.504zM512.299 675.901c20.361 0 36.864-16.505 36.864-36.864v-189.53l112.083-112.083c14.397-14.397 14.397-37.736 0-52.134s-37.736-14.397-52.134 0l-122.88 122.88c-6.914 6.914-10.797 16.29-10.797 26.067v204.8c0 20.359 16.503 36.864 36.864 36.864z" />
<glyph unicode="&#xe90a;" glyph-name="clock" d="M507.904 774.509c-180.325 0-326.509-146.183-326.509-326.509s146.183-326.509 326.509-326.509c180.326 0 326.513 146.182 326.513 326.509s-146.186 326.509-326.513 326.509zM97.135 448c0 226.862 183.908 410.77 410.769 410.77 226.865 0 410.771-183.908 410.771-410.77s-183.906-410.771-410.771-410.771c-226.861 0-410.769 183.91-410.769 410.771zM507.904 694.93c23.269 0 42.131-18.862 42.131-42.13v-187.351l110.539-110.539c16.454-16.454 16.454-43.127 0-59.58-16.45-16.454-43.127-16.454-59.58 0l-122.88 122.88c-7.901 7.901-12.337 18.616-12.337 29.79v204.8c0 23.268 18.862 42.13 42.127 42.13z" />
<glyph unicode="&#xe90b;" glyph-name="copy" d="M322.22 532.922c0 56.554 45.846 102.4 102.4 102.4h360.448c56.553 0 102.4-45.846 102.4-102.4v-360.448c0-56.553-45.847-102.4-102.4-102.4h-360.448c-56.554 0-102.4 45.847-102.4 102.4v360.448zM424.62 561.594c-15.835 0-28.672-12.837-28.672-28.672v-360.448c0-15.835 12.837-28.672 28.672-28.672h360.448c15.835 0 28.672 12.837 28.672 28.672v360.448c0 15.835-12.837 28.672-28.672 28.672h-360.448zM158.38 680.378c0 65.603 53.181 118.784 118.784 118.784h327.68c65.602 0 118.784-53.181 118.784-118.784v-81.92c0-20.359-16.503-36.864-36.864-36.864s-36.864 16.505-36.864 36.864v81.92c0 24.884-20.173 45.056-45.056 45.056h-327.68c-24.884 0-45.056-20.172-45.056-45.056v-327.68c0-24.883 20.172-45.056 45.056-45.056h81.92c20.36 0 36.864-16.503 36.864-36.864s-16.504-36.864-36.864-36.864h-81.92c-65.603 0-118.784 53.182-118.784 118.784v327.68z" />
<glyph unicode="&#xe90c;" glyph-name="diamond" d="M248.807 765.591c0.787 1.366 1.649 2.683 2.58 3.946 3.608 4.918 8.128 8.852 13.183 11.708 5.050 2.865 10.749 4.717 16.822 5.281 1.562 0.148 3.135 0.209 4.711 0.181h490.749c14.799 0 28.512-7.764 36.127-20.454l122.88-204.8c9.499-15.833 7.582-36.006-4.731-49.768l-348.16-389.12c-0.422-0.475-0.86-0.938-1.303-1.393-13.316-13.591-31.547-21.25-50.573-21.25-19.030 0-37.257 7.66-50.573 21.25-0.446 0.455-0.881 0.918-1.307 1.393l-348.158 389.12c-12.312 13.763-14.229 33.935-4.729 49.768l122.483 204.138zM309.185 702.447l-94.631-157.72 316.538-353.776 316.535 353.776-94.63 157.72h-443.812zM413.503 625.055c19.952-11.971 26.419-37.85 14.451-57.802l-8.466-14.112 60.858-66.945c15.651-17.215 14.381-43.86-2.834-59.511-17.22-15.655-43.864-14.385-59.515 2.83l-81.92 90.112c-12.503 13.754-14.516 34.078-4.952 50.017l24.576 40.96c11.971 19.952 37.85 26.422 57.803 14.451z" />
<glyph unicode="&#xe90d;" glyph-name="disc" d="M256 751.865h396.874l145.846-145.845v-396.875c0-28.279-22.921-51.2-51.2-51.2h-491.52c-28.277 0-51.2 22.921-51.2 51.2v491.52c0 28.277 22.923 51.2 51.2 51.2zM256 813.305c-62.209 0-112.64-50.43-112.64-112.64v-491.52c0-62.21 50.431-112.64 112.64-112.64h491.52c62.21 0 112.64 50.43 112.64 112.64v409.6c0 8.148-3.236 15.961-8.999 21.722l-163.84 163.84c-5.759 5.761-13.574 8.998-21.721 8.998h-409.6zM501.76 424.186c-28.279 0-51.2-22.921-51.2-51.2s22.921-51.2 51.2-51.2c28.279 0 51.2 22.921 51.2 51.2s-22.921 51.2-51.2 51.2zM389.12 372.986c0 62.21 50.43 112.64 112.64 112.64s112.64-50.43 112.64-112.64c0-62.21-50.43-112.64-112.64-112.64s-112.64 50.43-112.64 112.64zM337.92 813.305c16.966 0 30.72-13.754 30.72-30.72v-133.12h184.32v133.12c0 16.966 13.754 30.72 30.72 30.72s30.72-13.754 30.72-30.72v-163.84c0-16.966-13.754-30.72-30.72-30.72h-245.76c-16.966 0-30.72 13.754-30.72 30.72v163.84c0 16.966 13.754 30.72 30.72 30.72z" />
<glyph unicode="&#xe90e;" glyph-name="documents" d="M651.264 863.508c23.269 0 42.131-18.862 42.131-42.131v-162.669h162.669c23.269 0 42.131-18.862 42.131-42.13s-18.862-42.131-42.131-42.131h-163.84c-45.887 0-83.087 37.201-83.087 83.090v163.84c0 23.268 18.862 42.131 42.127 42.131zM487.424 779.247c-21.975 0-39.789-17.814-39.789-39.79v-409.598c0-21.979 17.814-39.793 39.789-39.793h286.72c21.975 0 39.793 17.814 39.793 39.793v269.267l-180.122 180.12h-146.391zM363.375 739.457c0 68.511 55.539 124.051 124.049 124.051h163.84c11.174 0 21.889-4.439 29.79-12.34l204.8-204.8c7.901-7.901 12.341-18.617 12.341-29.791v-286.718c0-68.514-55.538-124.051-124.051-124.051h-286.72c-68.51 0-124.049 55.538-124.049 124.051v409.598zM323.585 615.407c-21.975 0-39.79-17.814-39.79-39.79v-409.598c0-21.975 17.815-39.793 39.79-39.793h286.719c21.975 0 39.793 17.818 39.793 39.793v81.92c0 23.265 18.862 42.127 42.127 42.127 23.269 0 42.131-18.862 42.131-42.127v-81.92c0-68.514-55.538-124.051-124.051-124.051h-286.719c-68.511 0-124.050 55.538-124.050 124.051v409.598c0 68.511 55.539 124.051 124.050 124.051h81.92c23.268 0 42.13-18.862 42.13-42.131s-18.862-42.13-42.13-42.13h-81.92z" />
<glyph unicode="&#xe90f;" glyph-name="download" horiz-adv-x="983" d="M163.84 278.659c22.621 0 40.96-18.342 40.96-40.96v-81.92c0-22.622 18.339-40.96 40.96-40.96h491.52c22.622 0 40.96 18.338 40.96 40.96v81.92c0 22.618 18.338 40.96 40.96 40.96s40.96-18.342 40.96-40.96v-81.92c0-67.867-55.013-122.88-122.88-122.88h-491.52c-67.865 0-122.88 55.013-122.88 122.88v81.92c0 22.618 18.339 40.96 40.96 40.96zM257.757 512.422c15.996 15.995 41.93 15.995 57.926 0l175.837-175.837 175.837 175.837c15.995 15.995 41.931 15.995 57.926 0 15.995-15.999 15.995-41.931 0-57.926l-204.8-204.8c-15.995-15.999-41.931-15.999-57.926 0l-204.8 204.8c-15.996 15.995-15.996 41.927 0 57.926zM491.52 811.137c22.622 0 40.96-18.338 40.96-40.96v-491.518c0-22.622-18.338-40.96-40.96-40.96s-40.96 18.338-40.96 40.96v491.518c0 22.622 18.338 40.96 40.96 40.96z" />
<glyph unicode="&#xe910;" glyph-name="email" d="M90.925 639.037c0 65.602 53.181 118.784 118.784 118.784h573.438c65.606 0 118.784-53.182 118.784-118.784v-409.6c0-65.602-53.178-118.784-118.784-118.784h-573.438c-65.603 0-118.784 53.182-118.784 118.784v409.6zM209.709 684.093c-24.884 0-45.056-20.172-45.056-45.056v-409.6c0-24.883 20.172-45.056 45.056-45.056h573.438c24.887 0 45.056 20.173 45.056 45.056v409.6c0 24.884-20.169 45.056-45.056 45.056h-573.438zM97.115 659.485c11.293 16.94 34.181 21.518 51.121 10.224l348.191-232.126 348.193 232.126c16.941 11.293 39.83 6.716 51.122-10.224s6.713-39.828-10.224-51.121l-368.64-245.762c-12.386-8.253-28.516-8.253-40.899 0l-368.64 245.762c-16.94 11.293-21.518 34.181-10.224 51.121z" />
<glyph unicode="&#xe911;" glyph-name="expand" d="M88.405 739.157c0 70.881 57.46 128.341 128.341 128.341h174.763c22.621 0 40.959-18.338 40.959-40.96s-18.338-40.96-40.959-40.96h-174.763c-25.638 0-46.421-20.784-46.421-46.421v-174.763c0-22.62-18.339-40.958-40.96-40.958s-40.96 18.338-40.96 40.958v174.763zM612.692 826.538c0 22.622 18.338 40.96 40.96 40.96h174.764c70.881 0 128.34-57.46 128.34-128.341v-174.763c0-22.62-18.338-40.958-40.96-40.958s-40.96 18.338-40.96 40.958v174.763c0 25.638-20.783 46.421-46.42 46.421h-174.764c-22.622 0-40.96 18.339-40.96 40.96zM129.365 343.212c22.621 0 40.96-18.342 40.96-40.96v-174.764c0-25.637 20.784-46.42 46.421-46.42h174.763c22.621 0 40.959-18.342 40.959-40.96 0-22.622-18.338-40.96-40.959-40.96h-174.763c-70.881 0-128.341 57.459-128.341 128.34v174.764c0 22.618 18.338 40.96 40.96 40.96zM915.796 343.212c22.622 0 40.96-18.342 40.96-40.96v-174.764c0-70.881-57.459-128.34-128.34-128.34h-174.764c-22.622 0-40.96 18.338-40.96 40.96 0 22.618 18.338 40.96 40.96 40.96h174.764c25.637 0 46.42 20.783 46.42 46.42v174.764c0 22.618 18.338 40.96 40.96 40.96z" />
<glyph unicode="&#xe912;" glyph-name="eye" d="M519.209 493.326c-24.883 0-45.056-20.169-45.056-45.056 0-24.883 20.173-45.056 45.056-45.056s45.056 20.173 45.056 45.056c0 24.887-20.173 45.056-45.056 45.056zM400.425 448.27c0 65.606 53.182 118.786 118.784 118.786s118.784-53.18 118.784-118.786c0-65.602-53.182-118.784-118.784-118.784s-118.784 53.182-118.784 118.784zM152.334 448.27c103.059 171.445 225.658 249.858 366.875 249.858s263.815-78.413 366.875-249.858c-103.059-171.442-225.657-249.856-366.875-249.856s-263.816 78.414-366.875 249.856zM960.467 467.173c-113.193 197.765-259.912 304.683-441.258 304.683-181.535 0-328.369-107.139-441.607-305.293-6.477-11.334-6.477-25.248 0-36.581 113.238-198.156 260.071-305.295 441.607-305.295 181.346 0 328.065 106.918 441.258 304.681 0.729 1.225 1.384 2.486 1.962 3.781 2.204 4.878 3.256 10.031 3.252 15.122 0.004 5.095-1.049 10.248-3.252 15.127-0.578 1.29-1.233 2.556-1.962 3.777z" />
<glyph unicode="&#xe913;" glyph-name="file" d="M594.219 872.577c22.622 0 40.96-18.338 40.96-40.96v-163.84h163.84c22.622 0 40.96-18.338 40.96-40.96s-18.338-40.96-40.96-40.96h-163.84c-45.24 0-81.92 36.677-81.92 81.92v163.84c0 22.622 18.338 40.96 40.96 40.96zM307.5 790.657c-22.621 0-40.96-18.338-40.96-40.96v-573.438c0-22.622 18.339-40.96 40.96-40.96h409.599c22.622 0 40.96 18.338 40.96 40.96v433.592l-180.806 180.806h-269.754zM184.62 749.697c0 67.865 55.015 122.88 122.88 122.88h286.719c10.863 0 21.283-4.316 28.963-11.997l204.8-204.8c7.684-7.682 11.997-18.1 11.997-28.963v-450.558c0-67.867-55.013-122.88-122.88-122.88h-409.599c-67.865 0-122.88 55.013-122.88 122.88v573.438zM348.46 585.857c0 22.622 18.339 40.96 40.96 40.96h40.959c22.622 0 40.96-18.338 40.96-40.96s-18.338-40.958-40.96-40.958h-40.959c-22.621 0-40.96 18.337-40.96 40.958zM348.46 422.019c0 22.618 18.339 40.96 40.96 40.96h245.759c22.622 0 40.96-18.342 40.96-40.96 0-22.622-18.338-40.96-40.96-40.96h-245.759c-22.621 0-40.96 18.338-40.96 40.96zM348.46 258.179c0 22.618 18.339 40.96 40.96 40.96h245.759c22.622 0 40.96-18.342 40.96-40.96 0-22.622-18.338-40.96-40.96-40.96h-245.759c-22.621 0-40.96 18.338-40.96 40.96z" />
<glyph unicode="&#xe914;" glyph-name="globe" d="M512 800c-194.404 0-352-157.596-352-352 0-194.402 157.596-352 352-352 194.402 0 352 157.598 352 352 0 194.404-157.598 352-352 352zM96 448c0 229.751 186.249 416 416 416s416-186.249 416-416c0-229.751-186.249-416-416-416s-416 186.249-416 416zM121.599 576c0 17.673 14.327 32 32 32h716.801c17.673 0 32-14.327 32-32s-14.327-32-32-32h-716.801c-17.673 0-32 14.327-32 32zM121.599 320c0 17.673 14.327 32 32 32h716.801c17.673 0 32-14.327 32-32s-14.327-32-32-32h-716.801c-17.673 0-32 14.327-32 32zM507.61 859.147c14.993-9.356 19.563-29.095 10.206-44.089-140.177-224.631-140.177-509.488 0-734.12 9.357-14.993 4.787-34.731-10.206-44.087s-34.731-4.787-44.087 10.206c-153.119 245.367-153.119 556.518 0 801.884 9.357 14.993 29.094 19.563 44.087 10.206zM516.39 859.147c14.993 9.356 34.735 4.787 44.092-10.206 153.114-245.366 153.114-556.516 0-801.884-9.357-14.993-29.099-19.563-44.092-10.206s-19.563 29.094-10.206 44.087c140.177 224.631 140.177 509.489 0 734.12-9.357 14.993-4.787 34.732 10.206 44.089z" />
<glyph unicode="&#xe915;" glyph-name="home-1" d="M494.375 845.268c11.997 11.997 31.445 11.997 43.442 0l368.64-368.641c8.786-8.786 11.416-22 6.66-33.477-4.755-11.481-15.958-18.964-28.381-18.964h-81.92c-16.966 0-30.72 13.754-30.72 30.72s13.754 30.72 30.72 30.72h7.754l-294.474 294.475-294.475-294.475h7.755c16.966 0 30.72-13.754 30.72-30.72s-13.754-30.72-30.72-30.72h-81.92c-12.425 0-23.627 7.483-28.382 18.964-4.755 11.477-2.127 24.691 6.659 33.477l368.641 368.641zM229.375 485.626c16.966 0 30.72-13.754 30.72-30.72v-286.72c0-28.279 22.923-51.2 51.2-51.2h409.601c28.275 0 51.2 22.921 51.2 51.2v286.72c0 16.966 13.754 30.72 30.72 30.72s30.72-13.754 30.72-30.72v-286.72c0-62.21-50.43-112.64-112.64-112.64h-409.601c-62.21 0-112.64 50.43-112.64 112.64v286.72c0 16.966 13.754 30.72 30.72 30.72zM475.136 383.226c-28.279 0-51.2-22.921-51.2-51.2v-245.76c0-16.966-13.754-30.72-30.721-30.72s-30.72 13.754-30.72 30.72v245.76c0 62.21 50.431 112.64 112.641 112.64h81.92c62.21 0 112.64-50.43 112.64-112.64v-245.76c0-16.966-13.754-30.72-30.72-30.72s-30.72 13.754-30.72 30.72v245.76c0 28.279-22.925 51.2-51.2 51.2h-81.92z" />
<glyph unicode="&#xe916;" glyph-name="home" d="M468.627 837.617c15.356 15.356 40.255 15.356 55.611 0l368.64-368.641c11.244-11.244 14.61-28.156 8.524-42.852-6.087-14.692-20.427-24.273-36.332-24.273h-81.92c-21.717 0-39.322 17.605-39.322 39.322 0 17.773 11.792 32.788 27.976 37.659l-275.374 275.372-275.37-275.372c16.184-4.87 27.973-19.886 27.973-37.659 0-21.717-17.605-39.322-39.322-39.322h-81.92c-15.904 0-30.242 9.581-36.328 24.273-6.086 14.696-2.722 31.609 8.524 42.852l368.639 368.641zM209.712 480.494c21.717 0 39.322-17.605 39.322-39.322v-286.72c0-23.527 19.072-42.598 42.598-42.598h409.6c23.527 0 42.598 19.071 42.598 42.598v286.72c0 21.717 17.605 39.322 39.322 39.322s39.322-17.605 39.322-39.322v-286.72c0-66.961-54.28-121.242-121.242-121.242h-409.6c-66.96 0-121.242 54.28-121.242 121.242v286.72c0 21.717 17.605 39.322 39.322 39.322zM455.471 360.89c-23.527 0-42.598-19.071-42.598-42.598v-245.76c0-21.717-17.604-39.322-39.321-39.322s-39.322 17.605-39.322 39.322v245.76c0 66.961 54.282 121.242 121.241 121.242h81.92c66.961 0 121.242-54.28 121.242-121.242v-245.76c0-21.717-17.605-39.322-39.322-39.322s-39.322 17.605-39.322 39.322v245.76c0 23.527-19.071 42.598-42.598 42.598h-81.92z" />
<glyph unicode="&#xe917;" glyph-name="instagram" d="M716.8 857.6h-409.599c-112.63 0-204.8-92.13-204.8-204.8v-409.6c0-112.631 92.17-204.8 204.8-204.8h409.599c112.631 0 204.8 92.169 204.8 204.8v409.6c0 112.67-92.169 204.8-204.8 204.8zM512 277.342c-94.269 0-170.669 76.429-170.669 170.658 0 94.27 76.4 170.67 170.669 170.67 94.229 0 170.671-76.4 170.671-170.67 0-94.229-76.442-170.658-170.671-170.658zM733.871 618.67c-28.305 0-51.2 22.928-51.2 51.2s22.895 51.2 51.2 51.2c28.305 0 51.2-22.928 51.2-51.2s-22.895-51.2-51.2-51.2z" />
<glyph unicode="&#xe918;" glyph-name="map-pin" d="M494.219 574.977c-47.505 0-86.016-38.511-86.016-86.017s38.511-86.016 86.016-86.016c47.505 0 86.016 38.511 86.016 86.016s-38.511 86.017-86.016 86.017zM334.475 488.96c0 88.225 71.52 159.745 159.744 159.745s159.744-71.52 159.744-159.745c0-88.224-71.52-159.744-159.744-159.744s-159.744 71.52-159.744 159.744zM699.855 694.588c113.57-113.568 113.574-297.698 0.008-411.272 0 0 0 0 0 0l-173.781-173.781c-17.592-17.572-46.092-17.572-63.685 0l-173.826 173.785c-0.001 0 0.001 0 0 0-113.562 113.57-113.558 297.701 0.011 411.268 113.57 113.569 297.702 113.569 411.272 0zM751.997 231.182c142.356 142.365 142.352 373.18-0.008 515.54-142.365 142.361-373.176 142.361-515.539 0s-142.367-373.175-0.009-515.54l173.839-173.797c46.379-46.33 121.532-46.338 167.911-0.008l173.806 173.806z" />
<glyph unicode="&#xe919;" glyph-name="money" horiz-adv-x="983" d="M491.52 532.607c-49.77 0-90.114-40.342-90.114-90.112 0-49.766 40.344-90.112 90.114-90.112 49.766 0 90.112 40.346 90.112 90.112 0 49.77-40.346 90.112-90.112 90.112zM335.87 442.495c0 85.963 69.686 155.65 155.65 155.65 85.959 0 155.648-69.687 155.648-155.65 0-85.959-69.689-155.648-155.648-155.648-85.964 0-155.65 69.689-155.65 155.648zM90.11 615.439c0 58.314 47.272 105.586 105.586 105.586h591.645c58.311 0 105.587-47.272 105.587-105.586v-345.885c0-58.311-47.276-105.587-105.587-105.587h-591.645c-58.314 0-105.586 47.276-105.586 105.587v345.885zM195.696 655.489c-22.119 0-40.050-17.931-40.050-40.050v-345.885c0-22.118 17.931-40.051 40.050-40.051h591.645c22.118 0 40.051 17.932 40.051 40.051v345.885c0 22.119-17.932 40.050-40.051 40.050h-591.645zM704.512 442.495c0 18.1 14.668 32.768 32.768 32.768h0.41c18.096 0 32.768-14.668 32.768-32.768 0-18.096-14.672-32.768-32.768-32.768h-0.41c-18.1 0-32.768 14.672-32.768 32.768zM212.99 442.495c0 18.1 14.671 32.768 32.768 32.768h0.41c18.097 0 32.768-14.668 32.768-32.768 0-18.096-14.671-32.768-32.768-32.768h-0.41c-18.097 0-32.768 14.672-32.768 32.768z" />
<glyph unicode="&#xe91a;" glyph-name="play" d="M142.219 789.333v-682.667l739.556 341.333-739.556 341.333zM121.406 817.268c13.494 5.655 30.010 5.394 43.174-0.682l739.556-341.335c12.617-5.824 20.305-16.141 20.305-27.251s-7.689-21.427-20.305-27.251l-739.556-341.333c-13.164-6.076-29.681-6.34-43.174-0.683-13.494 5.653-21.854 16.341-21.854 27.934v682.667c0 11.593 8.36 22.279 21.854 27.935zM184.885 732.067v-568.134l615.477 284.066-615.477 284.067z" />
<glyph unicode="&#xe91b;" glyph-name="print" horiz-adv-x="983" d="M86.015 489.23c0 65.603 53.181 118.785 118.784 118.785h573.441c65.602 0 118.784-53.182 118.784-118.785v-163.84c0-65.602-53.182-118.784-118.784-118.784h-81.92c-20.361 0-36.864 16.507-36.864 36.864 0 20.361 16.503 36.864 36.864 36.864h81.92c24.883 0 45.056 20.173 45.056 45.056v163.84c0 24.883-20.173 45.056-45.056 45.056h-573.441c-24.884 0-45.056-20.173-45.056-45.056v-163.84c0-24.883 20.172-45.056 45.056-45.056h81.92c20.36 0 36.864-16.503 36.864-36.864 0-20.357-16.504-36.864-36.864-36.864h-81.92c-65.603 0-118.784 53.182-118.784 118.784v163.84zM249.855 734.991c0 65.602 53.181 118.784 118.784 118.784h245.761c65.602 0 118.784-53.182 118.784-118.784v-163.84c0-20.36-16.507-36.865-36.864-36.865-20.361 0-36.864 16.505-36.864 36.865v163.84c0 24.884-20.173 45.056-45.056 45.056h-245.761c-24.884 0-45.056-20.172-45.056-45.056v-163.84c0-20.36-16.505-36.865-36.864-36.865s-36.864 16.505-36.864 36.865v163.84zM249.855 341.774c0 56.553 45.846 102.4 102.4 102.4h278.529c56.553 0 102.4-45.847 102.4-102.4v-196.608c0-56.553-45.847-102.4-102.4-102.4h-278.529c-56.554 0-102.4 45.847-102.4 102.4v196.608zM352.255 370.446c-15.835 0-28.672-12.837-28.672-28.672v-196.608c0-15.835 12.837-28.672 28.672-28.672h278.529c15.835 0 28.672 12.837 28.672 28.672v196.608c0 15.835-12.837 28.672-28.672 28.672h-278.529z" />
<glyph unicode="&#xe91c;" glyph-name="quote" d="M30.025-43.528v292.069c0 82.936 12.391 167.674 37.174 254.214 24.783 86.538 57.482 168.12 98.098 244.744s84.674 140.628 132.173 192.010l194.128-150.093c-38.547-79.328-70.214-162.262-94.998-248.803-24.094-86.54-36.141-182.997-36.141-289.366v-294.777h-330.434zM551.49-43.528v292.069c0 82.936 12.39 167.674 37.175 254.214 24.781 86.538 57.479 168.12 98.095 244.744s84.677 140.628 132.174 192.010l194.13-150.093c-38.547-79.328-70.218-162.262-94.999-248.803-24.093-86.54-36.143-182.997-36.143-289.366v-294.777h-330.433z" />
<glyph unicode="&#xe91d;" glyph-name="rocket" d="M718.553 832.168c0.782 0.043 1.561 0.064 2.343 0.064 91.615 0 165.888-74.271 165.888-165.888 0-0.781-0.020-1.562-0.066-2.342-8.548-156.79-105.378-294.166-248.123-355.634-11.829-88.24-63.914-166.756-141.98-211.763-12.521-7.221-27.836-7.668-40.755-1.188-12.923 6.48-21.725 19.018-23.433 33.37-15.487 130.306-118.023 233.103-248.204 248.984-3.151 0.307-6.295 0.967-9.375 1.991-10.999 3.645-19.853 11.534-24.882 21.541-5.013 10.023-6.040 21.844-2.374 32.842 1.033 3.121 2.41 6.070 4.079 8.81 45.088 77.57 123.346 129.306 211.25 141.089 61.466 142.744 198.842 239.575 355.632 248.125zM264.695 447.64c112.388-36.606 200.89-125.108 237.5-237.498 32.063 35.164 51.22 81.052 52.838 129.942 0.582 17.723 11.985 33.268 28.709 39.15 123.843 43.569 209.371 157.217 217.018 288.195-0.573 43.252-35.529 78.205-78.782 78.78-130.974-7.646-244.625-93.175-288.19-217.017-5.886-16.728-21.43-28.127-39.152-28.713-48.889-1.614-94.776-20.771-129.94-52.838zM348.748 400.765c11.677-20.681 4.376-46.916-16.308-58.593-61.457-34.697-99.68-98.284-102.865-167.15 68.868 3.183 132.454 41.406 167.15 102.863 11.677 20.685 37.91 27.988 58.595 16.31s27.988-37.913 16.31-58.597c-57.852-102.466-172.087-159.584-288.77-144.384-19.345 2.523-34.571 17.748-37.091 37.093-15.202 116.683 41.917 230.92 144.384 288.768 20.684 11.678 46.918 4.375 58.595-16.31zM638.976 582.375c1.135 0 2.048 0.917 2.048 2.048s-0.913 2.048-2.048 2.048c-1.13 0-2.048-0.917-2.048-2.048s0.918-2.048 2.048-2.048zM555.008 584.423c0 46.374 37.597 83.968 83.968 83.968 46.375 0 83.972-37.594 83.972-83.968s-37.597-83.97-83.972-83.97c-46.371 0-83.968 37.597-83.968 83.97z" />
<glyph unicode="&#xe91e;" glyph-name="search" d="M426.667 789.333c-141.385 0-256-114.615-256-256s114.615-256 256-256c141.385 0 256 114.615 256 256s-114.615 256-256 256zM85.333 533.333c0 188.513 152.82 341.333 341.333 341.333s341.333-152.82 341.333-341.333c0-188.514-152.819-341.333-341.333-341.333s-341.333 152.819-341.333 341.333zM609.83 350.17c16.661 16.661 43.678 16.661 60.339 0l256-256c16.661-16.661 16.661-43.678 0-60.339s-43.678-16.661-60.339 0l-256 256c-16.661 16.661-16.661 43.678 0 60.339z" />
<glyph unicode="&#xe91f;" glyph-name="send" d="M900.047 845.221c15.999-15.996 15.999-41.93 0-57.926l-450.56-450.558c-15.995-15.999-41.929-15.999-57.925 0-15.996 15.995-15.996 41.927 0 57.926l450.559 450.559c15.995 15.996 41.931 15.996 57.926 0zM856.92 854.69c2.593 0.957 5.284 1.655 8.036 2.074 4.522 0.688 9.2 0.625 13.857-0.276 2.585-0.499 5.112-1.244 7.541-2.221 5.288-2.12 9.904-5.233 13.709-9.044 3.805-3.804 6.918-8.417 9.036-13.702 1.176-2.927 2.015-5.992 2.494-9.134 0.692-4.53 0.627-9.221-0.283-13.889-0.422-2.188-1.024-4.332-1.79-6.411l-266.15-737.023c-0.385-1.069-0.815-2.118-1.286-3.15-10.342-22.569-32.891-37.040-57.717-37.040-24.535 0-46.846 14.135-57.348 36.25l-137.022 274.043-274.042 137.023c-22.117 10.502-36.251 32.813-36.251 57.348 0 24.824 14.47 47.373 37.039 57.715 1.032 0.473 2.084 0.903 3.152 1.289l737.024 266.147zM802.922 748.094l-612.927-221.336 248.85-124.424c7.926-3.965 14.356-10.392 18.317-18.317l124.424-248.852 221.336 612.93z" />
<glyph unicode="&#xe920;" glyph-name="share" d="M282.609 547.942c-47.505 0-86.016-38.511-86.016-86.016s38.511-86.016 86.016-86.016c47.505 0 86.016 38.511 86.016 86.016s-38.511 86.016-86.016 86.016zM122.865 461.926c0 88.224 71.52 159.742 159.744 159.742s159.743-71.519 159.743-159.742c0-88.228-71.519-159.744-159.743-159.744s-159.744 71.516-159.744 159.744zM774.128 793.701c-47.505 0-86.016-38.511-86.016-86.016s38.511-86.016 86.016-86.016c47.505 0 86.016 38.511 86.016 86.016s-38.511 86.016-86.016 86.016zM614.384 707.685c0 88.224 71.52 159.744 159.744 159.744s159.744-71.52 159.744-159.744c0-88.224-71.52-159.742-159.744-159.742s-159.744 71.518-159.744 159.742zM774.128 302.182c-47.505 0-86.016-38.511-86.016-86.016s38.511-86.016 86.016-86.016c47.505 0 86.016 38.511 86.016 86.016s-38.511 86.016-86.016 86.016zM614.384 216.166c0 88.224 71.52 159.744 159.744 159.744s159.744-71.52 159.744-159.744c0-88.228-71.52-159.744-159.744-159.744s-159.744 71.516-159.744 159.744zM696.308 671.319c9.327-18.099 2.212-40.33-15.888-49.653l-270.336-139.264c-18.099-9.322-40.329-2.212-49.653 15.888s-2.21 40.329 15.889 49.652l270.336 139.266c18.1 9.324 40.329 2.21 49.652-15.889zM360.43 425.558c9.324 18.1 31.554 25.215 49.653 15.888l270.336-139.264c18.1-9.322 25.215-31.551 15.888-49.652-9.322-18.1-31.551-25.211-49.652-15.888l-270.336 139.264c-18.099 9.322-25.213 31.556-15.889 49.652z" />
<glyph unicode="&#xe921;" glyph-name="star" horiz-adv-x="983" d="M491.229 900.526c16.372 0 31.322-9.294 38.568-23.974l116.392-235.837 260.235-37.716c16.212-2.349 29.68-13.702 34.738-29.28s0.831-32.678-10.908-44.102l-188.584-183.566 44.466-259.215c2.769-16.142-3.871-32.457-17.125-42.078-13.255-9.617-30.822-10.875-45.314-3.24l-232.202 122.36-232.769-122.38c-14.49-7.619-32.049-6.349-45.294 3.273-13.244 9.626-19.877 25.932-17.109 42.066l44.465 259.215-188.584 183.566c-11.737 11.424-15.965 28.524-10.906 44.102s18.527 26.93 34.737 29.28l260.237 37.716 116.393 235.837c7.242 14.68 22.196 23.974 38.564 23.974zM491.229 760.338l-87.834-177.977c-6.267-12.698-18.384-21.498-32.399-23.529l-196.265-28.445 142.271-138.486c10.151-9.88 14.785-24.125 12.39-38.089l-33.557-195.625 175.667 92.361c12.542 6.595 27.529 6.586 40.063-0.020l175.043-92.238-33.538 195.523c-2.396 13.963 2.236 28.209 12.39 38.089l142.27 138.486-196.268 28.445c-14.012 2.031-26.128 10.831-32.395 23.529l-87.839 177.977z" />
<glyph unicode="&#xe922;" glyph-name="telegram" d="M512 38.4c226.27 0 409.6 183.33 409.6 409.6s-183.33 409.6-409.6 409.6c-226.269 0-409.599-183.33-409.599-409.6s183.33-409.6 409.599-409.6zM289.827 456.875l394.922 152.269c18.33 6.622 34.338-4.471 28.399-32.188l0.034 0.034-67.243-316.792c-4.983-22.46-18.33-27.921-37.001-17.34l-102.4 75.469-49.391-47.582c-5.461-5.461-10.069-10.069-20.651-10.069l7.27 104.209 189.781 171.452c8.26 7.27-1.843 11.366-12.732 4.13l-234.529-147.661-101.103 31.539c-21.948 6.963-22.426 21.948 4.642 32.529z" />
<glyph unicode="&#xe923;" d="M522.31 860.819c224.51-3.893 405.602-187.387 405.602-412.819 0-227.865-185.008-412.877-412.877-412.877-227.865 0-412.875 185.012-412.875 412.877 0 227.867 185.010 412.878 412.875 412.878 2.421 0 4.858-0.020 7.274-0.059z" />
<glyph unicode="&#xe924;" d="M515.035 844.493c-218.817 0-396.492-177.675-396.492-396.493s177.675-396.493 396.492-396.493c218.821 0 396.493 177.676 396.493 396.493 0 216.474-173.912 392.694-389.493 396.437-2.327 0.038-4.674 0.057-7 0.057zM85.775 448c0 236.916 192.345 429.261 429.26 429.261 2.507 0 5.034-0.020 7.541-0.061h0.020c233.423-4.048 421.7-194.814 421.7-429.2 0-236.917-192.344-429.261-429.261-429.261-236.915 0-429.26 192.344-429.26 429.261z" />
<glyph unicode="&#xe925;" d="M732.312 608.838c12.82-12.774 12.857-33.521 0.086-46.341l-274.268-275.252c-12.669-12.714-33.21-12.87-46.072-0.348l-118.947 115.802c-12.967 12.624-13.245 33.37-0.621 46.338 12.624 12.964 33.37 13.242 46.337 0.618l95.739-93.209 251.408 252.309c12.771 12.819 33.522 12.857 46.338 0.083z" />
<glyph unicode="&#xe926;" glyph-name="upload" horiz-adv-x="983" d="M573.44 874.813c23.269 0 42.131-18.862 42.131-42.13v-162.67h162.669c23.269 0 42.131-18.862 42.131-42.13s-18.862-42.131-42.131-42.131h-163.84c-45.887 0-83.091 37.201-83.091 83.091v163.84c0 23.268 18.862 42.13 42.131 42.13zM286.72 790.552c-21.975 0-39.79-17.814-39.79-39.789v-573.438c0-21.979 17.814-39.793 39.79-39.793h409.6c21.975 0 39.789 17.814 39.789 39.793v433.107l-180.118 180.12h-269.271zM162.67 750.762c0 68.511 55.539 124.050 124.050 124.050h286.72c11.174 0 21.889-4.439 29.79-12.34l204.8-204.8c7.901-7.901 12.341-18.617 12.341-29.791v-450.558c0-68.514-55.542-124.051-124.051-124.051h-409.6c-68.511 0-124.050 55.538-124.050 124.051v573.438zM491.52 547.131c23.269 0 42.131-18.862 42.131-42.127v-245.76c0-23.269-18.862-42.131-42.131-42.131s-42.131 18.862-42.131 42.131v245.76c0 23.265 18.862 42.127 42.131 42.127zM491.52 547.131c11.174 0 21.889-4.436 29.79-12.337l122.88-122.88c16.454-16.454 16.454-43.131 0-59.585-16.454-16.45-43.127-16.45-59.58 0l-93.090 93.090-93.089-93.090c-16.453-16.45-43.128-16.45-59.581 0-16.453 16.454-16.453 43.131 0 59.585l122.88 122.88c7.901 7.901 18.616 12.337 29.79 12.337z" />
<glyph unicode="&#xe927;" glyph-name="x-mark" d="M785.334 722.713c15.995-15.996 15.995-41.93 0-57.926l-491.521-491.522c-15.996-15.995-41.93-15.995-57.926 0-15.996 15.999-15.996 41.931 0 57.93l491.522 491.518c15.995 15.996 41.927 15.996 57.926 0zM235.887 722.713c15.996 15.996 41.93 15.996 57.926 0l491.521-491.518c15.995-15.999 15.995-41.931 0-57.93-15.999-15.995-41.931-15.995-57.926 0l-491.522 491.522c-15.996 15.996-15.996 41.93 0 57.926z" />
<glyph unicode="&#xe928;" glyph-name="check" d="M880.486 688.487c14.991-14.996 14.991-39.31 0-54.306l-426.669-426.668c-7.201-7.199-16.968-11.244-27.153-11.244s-19.952 4.045-27.153 11.244l-213.333 213.335c-14.996 14.996-14.996 39.309 0 54.305s39.309 14.996 54.306 0l186.18-186.181 399.514 399.515c14.996 14.996 39.311 14.996 54.308 0z" />
<glyph unicode="&#xe929;" glyph-name="cash" horiz-adv-x="1365" d="M682.667 588.8c-77.762 0-140.8-63.038-140.8-140.8s63.038-140.8 140.8-140.8c77.762 0 140.8 63.038 140.8 140.8s-63.038 140.8-140.8 140.8zM439.467 448c0 134.316 108.884 243.2 243.2 243.2s243.2-108.884 243.2-243.2c0-134.316-108.884-243.2-243.2-243.2s-243.2 108.884-243.2 243.2zM55.467 718.223c0 91.115 73.863 164.977 164.977 164.977h924.448c91.11 0 164.975-73.863 164.975-164.977v-540.445c0-91.113-73.865-164.977-164.975-164.977h-924.448c-91.115 0-164.977 73.865-164.977 164.977v540.445zM220.444 780.8c-34.561 0-62.577-28.017-62.577-62.577v-540.445c0-34.56 28.017-62.577 62.577-62.577h924.448c34.56 0 62.575 28.017 62.575 62.577v540.445c0 34.561-28.015 62.577-62.575 62.577h-924.448zM1015.467 448c0 28.277 22.921 51.2 51.2 51.2h0.64c28.279 0 51.2-22.923 51.2-51.2s-22.921-51.2-51.2-51.2h-0.64c-28.279 0-51.2 22.923-51.2 51.2zM247.466 448c0 28.277 22.923 51.2 51.2 51.2h0.64c28.277 0 51.2-22.923 51.2-51.2s-22.923-51.2-51.2-51.2h-0.64c-28.277 0-51.2 22.923-51.2 51.2z" />
<glyph unicode="&#xe92a;" glyph-name="sec-facebook" d="M853.333 448c0 187.733-153.6 341.333-341.333 341.333s-341.333-153.6-341.333-341.333c0-170.667 123.733-311.467 285.867-337.067v238.933h-85.333v98.133h85.333v76.8c0 85.333 51.2 132.267 128 132.267 38.4 0 76.8-8.533 76.8-8.533v-85.333h-42.667c-42.667 0-55.467-25.6-55.467-51.2v-64h93.867l-17.067-98.133h-81.067v-243.2c170.667 25.6 294.4 170.667 294.4 341.333z" />
<glyph unicode="&#xe92b;" glyph-name="sec-telegram" d="M217.064 458.889c160.345 69.862 267.267 115.918 320.767 138.17 152.747 63.534 184.486 74.57 205.175 74.938 4.548 0.076 14.724-1.051 21.312-6.399 5.568-4.515 7.095-10.615 7.829-14.896s1.647-14.033 0.922-21.653c-8.277-86.973-44.096-298.033-62.319-395.445-7.71-41.216-22.891-55.036-37.589-56.388-31.94-2.94-56.196 21.107-87.13 41.387-48.41 31.731-75.759 51.486-122.748 82.453-54.307 35.785-19.102 55.454 11.844 87.599 8.098 8.414 148.834 136.422 151.556 148.034 0.341 1.452 0.657 6.866-2.556 9.724-3.217 2.859-7.966 1.881-11.392 1.104-4.851-1.102-82.189-52.216-232.004-153.349-21.951-15.070-41.834-22.417-59.648-22.033-19.639 0.427-57.417 11.106-85.5 20.237-34.446 11.196-61.822 17.114-59.439 36.13 1.242 9.907 14.881 20.036 40.919 30.387z" />
<glyph unicode="&#xe92c;" glyph-name="sec-twitter" d="M810.667 634.667c-22.4-11.2-44.8-14.933-70.933-18.667 26.133 14.933 44.8 37.333 52.267 67.2-22.4-14.933-48.533-22.4-78.4-29.867-22.4 22.4-56 37.333-89.6 37.333-78.4 0-138.133-74.667-119.467-149.333-100.8 3.733-190.4 52.267-253.867 126.933-33.6-56-14.933-126.933 37.333-164.267-18.667 0-37.333 7.467-56 14.933 0-56 41.067-108.267 97.067-123.2-18.667-3.733-37.333-7.467-56-3.733 14.933-48.533 59.733-85.867 115.733-85.867-44.8-33.6-112-52.267-175.467-44.8 56-33.6 119.467-56 186.667-56 227.733 0 354.667 190.4 347.2 365.867 26.133 14.933 48.533 37.333 63.467 63.467z" />
<glyph unicode="&#xe92d;" glyph-name="burger" horiz-adv-x="989" d="M129.47 701.125c0 19.502 15.809 35.31 35.31 35.31h659.127c19.502 0 35.31-15.809 35.31-35.31s-15.808-35.31-35.31-35.31h-659.127c-19.502 0-35.31 15.809-35.31 35.31zM129.47 453.953c0 19.502 15.809 35.31 35.31 35.31h659.127c19.502 0 35.31-15.808 35.31-35.31s-15.808-35.31-35.31-35.31h-659.127c-19.502 0-35.31 15.808-35.31 35.31zM129.47 206.781c0 19.502 15.809 35.31 35.31 35.31h659.127c19.502 0 35.31-15.808 35.31-35.31s-15.808-35.31-35.31-35.31h-659.127c-19.502 0-35.31 15.808-35.31 35.31z" />
</font>
</defs>
</svg>
