<svg width="24" height="24" viewBox="0 0 24 24" fill="none" xmlns="http://www.w3.org/2000/svg">
    <path d="M10.0916 17.5346H13.9054C13.934 17.5346 13.9627 17.5402 13.9897 17.5513C14.0168 17.5624 14.0407 17.5784 14.0614 17.5991C14.0821 17.6198 14.098 17.6437 14.1092 17.6707C14.1203 17.6978 14.1259 17.7257 14.1259 17.7551V23.7778C14.1259 23.8073 14.1203 23.8352 14.1092 23.8622C14.098 23.8893 14.0821 23.9132 14.0614 23.9339C14.0407 23.9546 14.0168 23.9705 13.9897 23.9817C13.9627 23.9928 13.934 23.9984 13.9054 23.9984H10.0916C10.0622 23.9984 10.0343 23.9928 10.0072 23.9817C9.98017 23.9705 9.95629 23.9546 9.93558 23.9339C9.91488 23.9132 9.89896 23.8893 9.88781 23.8622C9.87667 23.8352 9.87109 23.8073 9.87109 23.7778V17.7551C9.87109 17.7257 9.87667 17.6978 9.88781 17.6707C9.89896 17.6437 9.91488 17.6198 9.93558 17.5991C9.95629 17.5784 9.98017 17.5624 10.0072 17.5513C10.0343 17.5402 10.0622 17.5346 10.0916 17.5346Z" fill="white"/>
    <path d="M10.0944 4.93665H13.9081C13.9368 4.93665 13.9654 4.94222 13.9925 4.95416C14.0196 4.96531 14.0435 4.98123 14.0642 5.00194C14.0849 5.02264 14.1008 5.04653 14.1119 5.0736C14.1231 5.10067 14.1286 5.12854 14.1286 5.158V16.6309C14.1286 16.6603 14.1231 16.689 14.1119 16.7161C14.1008 16.7432 14.0849 16.767 14.0642 16.7877C14.0435 16.8084 14.0196 16.8244 13.9925 16.8355C13.9654 16.8467 13.9368 16.8522 13.9081 16.8522H10.0944C10.0649 16.8522 10.0371 16.8467 10.01 16.8355C9.98292 16.8244 9.95903 16.8084 9.93833 16.7877C9.91763 16.767 9.90171 16.7432 9.89056 16.7161C9.87942 16.689 9.87305 16.6603 9.87305 16.6309V5.158C9.87305 5.12854 9.87942 5.10067 9.89056 5.0736C9.90171 5.04653 9.91763 5.02264 9.93833 5.00194C9.95903 4.98123 9.98292 4.96531 10.01 4.95416C10.0371 4.94222 10.0649 4.93665 10.0944 4.93665Z" fill="#F7483B"/>
    <path d="M14.8086 5.16702C14.8086 5.04078 14.9118 4.93845 15.0391 4.93845H18.8329C18.9602 4.93845 19.0634 5.04078 19.0634 5.16702V13.0512C19.0634 13.1774 18.9602 13.2798 18.8329 13.2798H15.0391C14.9118 13.2798 14.8086 13.1774 14.8086 13.0512V5.16702Z" fill="#F7483B"/>
    <path d="M15.0272 13.9619H18.8409C18.8696 13.9619 18.8982 13.9675 18.9253 13.9786C18.9524 13.9898 18.9762 14.0057 18.9969 14.0264C19.0177 14.0471 19.0336 14.071 19.0447 14.098C19.0559 14.1251 19.0614 14.153 19.0614 14.1824V23.7786C19.0614 23.8081 19.0559 23.8359 19.0447 23.863C19.0336 23.8901 19.0177 23.914 18.9969 23.9347C18.9762 23.9554 18.9524 23.9713 18.9253 23.9825C18.8982 23.9944 18.8696 24 18.8409 24H15.0272C14.9977 24 14.9699 23.9944 14.9428 23.9825C14.9157 23.9713 14.8918 23.9554 14.8711 23.9347C14.8504 23.914 14.8345 23.8901 14.8234 23.863C14.8122 23.8359 14.8066 23.8081 14.8066 23.7786V14.1824C14.8066 14.153 14.8122 14.1251 14.8234 14.098C14.8345 14.071 14.8504 14.0471 14.8711 14.0264C14.8918 14.0057 14.9157 13.9898 14.9428 13.9786C14.9699 13.9675 14.9977 13.9619 15.0272 13.9619Z" fill="white"/>
    <path d="M23.7665 9.59244C23.8938 9.59244 23.997 9.69477 23.997 9.82101V23.7701C23.997 23.8963 23.8938 23.9986 23.7665 23.9986H19.9727C19.8454 23.9986 19.7422 23.8963 19.7422 23.7701V9.82101C19.7422 9.69477 19.8454 9.59244 19.9727 9.59244H23.7665Z" fill="white"/>
    <path d="M23.9906 0.221352V4.0353C23.9906 4.06476 23.985 4.09263 23.9731 4.1197C23.9619 4.14677 23.946 4.17066 23.9253 4.19136C23.9046 4.21206 23.8807 4.22799 23.8536 4.23913C23.8266 4.25028 23.7987 4.25586 23.7692 4.25586H4.47693C4.44748 4.25586 4.41881 4.26143 4.39174 4.27258C4.36467 4.28372 4.34079 4.29965 4.32009 4.32035C4.29939 4.34105 4.28346 4.36494 4.27152 4.39201C4.26037 4.41988 4.2548 4.44775 4.2548 4.47721V23.7739C4.2548 23.8033 4.24923 23.8312 4.23808 23.8583C4.22693 23.8853 4.21101 23.9092 4.19031 23.9299C4.16961 23.9506 4.14572 23.9666 4.11865 23.9777C4.09158 23.9888 4.06372 23.9944 4.03426 23.9944H0.221339C0.19188 23.9944 0.164014 23.9888 0.136943 23.9777C0.109873 23.9666 0.0859876 23.9506 0.065287 23.9299C0.0445861 23.9092 0.0286626 23.8853 0.0167198 23.8583C0.00557338 23.8312 0 23.8033 0 23.7739V0.221352C0 0.191892 0.00557338 0.164023 0.0167198 0.136952C0.0278665 0.10988 0.0445861 0.0859931 0.065287 0.0652909C0.0859876 0.0445888 0.109873 0.0286644 0.136943 0.0175171C0.164014 0.00636975 0.19188 0 0.221339 0H23.7692C23.7987 0 23.8274 0.00636975 23.8536 0.0175171C23.8807 0.0286644 23.9046 0.0445888 23.9261 0.0652909C23.9468 0.0859931 23.9627 0.10988 23.9739 0.136952C23.985 0.164023 23.9906 0.191892 23.9906 0.221352Z" fill="white"/>
    <path d="M5.15804 4.93665H8.97176C9.00122 4.93665 9.02908 4.94222 9.05615 4.95416C9.08322 4.96531 9.10711 4.98123 9.12781 5.00194C9.14851 5.02264 9.16443 5.04653 9.17558 5.0736C9.18673 5.10067 9.1923 5.12854 9.1923 5.158V14.7589C9.1923 14.7884 9.18673 14.8163 9.17558 14.8433C9.16443 14.8704 9.14851 14.8943 9.12781 14.915C9.10711 14.9357 9.08322 14.9516 9.05615 14.9628C9.02908 14.9739 9.00122 14.9795 8.97176 14.9795H5.15804C5.12858 14.9795 5.10072 14.9739 5.07365 14.9628C5.04658 14.9516 5.02269 14.9357 5.00199 14.915C4.98129 14.8943 4.96537 14.8704 4.95422 14.8433C4.94307 14.8163 4.9375 14.7884 4.9375 14.7589V5.158C4.9375 5.12854 4.94307 5.10067 4.95422 5.0736C4.96537 5.04653 4.98129 5.02264 5.00199 5.00194C5.02269 4.98123 5.04658 4.96531 5.07365 4.95416C5.10072 4.94222 5.12858 4.93665 5.15804 4.93665Z" fill="#F7483B"/>
    <path d="M19.9666 4.93665H23.7804C23.8098 4.93665 23.8377 4.94222 23.8647 4.95416C23.8918 4.96531 23.9157 4.98123 23.9364 5.00194C23.9571 5.02264 23.973 5.04653 23.9842 5.0736C23.9953 5.10067 24.0009 5.12854 24.0009 5.158V8.69167C24.0009 8.72113 23.9953 8.749 23.9842 8.77607C23.973 8.80314 23.9571 8.82703 23.9364 8.84773C23.9157 8.86843 23.8918 8.88436 23.8647 8.89551C23.8377 8.90665 23.8098 8.91223 23.7804 8.91223H19.9666C19.9372 8.91223 19.9093 8.90665 19.8822 8.89551C19.8552 8.88436 19.8313 8.86843 19.8106 8.84773C19.7899 8.82703 19.774 8.80314 19.7628 8.77607C19.7517 8.749 19.7461 8.72113 19.7461 8.69167V5.158C19.7461 5.12854 19.7517 5.10067 19.7628 5.0736C19.774 5.04653 19.7899 5.02264 19.8106 5.00194C19.8313 4.98123 19.8552 4.96531 19.8822 4.95416C19.9093 4.94222 19.9372 4.93665 19.9666 4.93665Z" fill="#F7483B"/>
</svg>
