<svg width="56" height="56" viewBox="0 0 56 56" fill="none" xmlns="http://www.w3.org/2000/svg">
<rect width="56" height="56" fill="#F7483B"/>
<path d="M28.0007 26.3334C32.603 26.3334 36.334 30.0644 36.334 34.6667V44.6667H33.0007V34.6667C33.0007 32.0039 30.9191 29.8272 28.2945 29.6752L28.0007 29.6667C25.3378 29.6667 23.1612 31.7482 23.0091 34.3729L23.0007 34.6667V44.6667H19.6673V34.6667C19.6673 30.0644 23.3983 26.3334 28.0007 26.3334ZM17.1673 31.3334C17.6321 31.3334 18.0841 31.3877 18.5175 31.4904C18.2374 32.3234 18.0652 33.2034 18.0156 34.1155L18.0007 34.6667L18.0018 34.8094C17.8133 34.7427 17.6143 34.6979 17.4081 34.6782L17.1673 34.6667C15.8678 34.6667 14.7999 35.6582 14.6788 36.9259L14.6673 37.1667V44.6667H11.334V37.1667C11.334 33.945 13.9457 31.3334 17.1673 31.3334ZM38.834 31.3334C42.0557 31.3334 44.6673 33.945 44.6673 37.1667V44.6667H41.334V37.1667C41.334 35.8672 40.3425 34.7994 39.0748 34.6782L38.834 34.6667C38.542 34.6667 38.2617 34.7167 38.0012 34.8087L38.0007 34.6667C38.0007 33.5572 37.82 32.49 37.4865 31.4927C37.9171 31.3877 38.3692 31.3334 38.834 31.3334ZM17.1673 21.3334C19.4685 21.3334 21.334 23.1989 21.334 25.5C21.334 27.8012 19.4685 29.6667 17.1673 29.6667C14.8661 29.6667 13.0007 27.8012 13.0007 25.5C13.0007 23.1989 14.8661 21.3334 17.1673 21.3334ZM38.834 21.3334C41.1352 21.3334 43.0007 23.1989 43.0007 25.5C43.0007 27.8012 41.1352 29.6667 38.834 29.6667C36.5328 29.6667 34.6673 27.8012 34.6673 25.5C34.6673 23.1989 36.5328 21.3334 38.834 21.3334ZM17.1673 24.6667C16.7071 24.6667 16.334 25.0399 16.334 25.5C16.334 25.9602 16.7071 26.3334 17.1673 26.3334C17.6276 26.3334 18.0007 25.9602 18.0007 25.5C18.0007 25.0399 17.6276 24.6667 17.1673 24.6667ZM38.834 24.6667C38.3738 24.6667 38.0007 25.0399 38.0007 25.5C38.0007 25.9602 38.3738 26.3334 38.834 26.3334C39.2942 26.3334 39.6673 25.9602 39.6673 25.5C39.6673 25.0399 39.2942 24.6667 38.834 24.6667ZM28.0007 11.3334C31.6825 11.3334 34.6673 14.3181 34.6673 18C34.6673 21.6819 31.6825 24.6667 28.0007 24.6667C24.3188 24.6667 21.334 21.6819 21.334 18C21.334 14.3181 24.3188 11.3334 28.0007 11.3334ZM28.0007 14.6667C26.1597 14.6667 24.6673 16.1591 24.6673 18C24.6673 19.841 26.1597 21.3334 28.0007 21.3334C29.8417 21.3334 31.334 19.841 31.334 18C31.334 16.1591 29.8417 14.6667 28.0007 14.6667Z" fill="white"/>
</svg>
