<svg width="56" height="56" viewBox="0 0 56 56" fill="none" xmlns="http://www.w3.org/2000/svg">
<rect width="56" height="56" fill="#F7483B"/>
<path d="M27.9997 8.83337L35.043 19.1391L47.0208 22.653L39.396 32.5362L39.7553 45.0137L27.9997 40.8162L16.2439 45.0137L16.6033 32.5362L8.97852 22.653L20.9563 19.1391L27.9997 8.83337ZM27.9997 14.74L23.0368 22.0026L14.5946 24.4784L19.9695 31.4425L19.7146 40.2334L27.9997 37.2767L36.283 40.2334L36.0298 31.4425L41.403 24.4784L32.9625 22.0026L27.9997 14.74ZM24.6663 28C24.6663 29.841 26.1587 31.3334 27.9997 31.3334C29.8407 31.3334 31.333 29.841 31.333 28H34.6663C34.6663 31.6819 31.6815 34.6667 27.9997 34.6667C24.3177 34.6667 21.333 31.6819 21.333 28H24.6663Z" fill="white"/>
</svg>
