<svg width="278" height="219" viewBox="0 0 278 219" fill="none" xmlns="http://www.w3.org/2000/svg">
<rect width="278" height="219" fill="#F7F8FA"/>
<path d="M130.098 135.828H147.895C148.029 135.828 148.162 135.854 148.289 135.906C148.415 135.958 148.526 136.032 148.623 136.129C148.72 136.226 148.794 136.337 148.846 136.463C148.898 136.59 148.924 136.72 148.924 136.857V164.963C148.924 165.1 148.898 165.231 148.846 165.357C148.794 165.483 148.72 165.595 148.623 165.691C148.526 165.788 148.415 165.862 148.289 165.914C148.162 165.966 148.029 165.992 147.895 165.992H130.098C129.96 165.992 129.83 165.966 129.704 165.914C129.577 165.862 129.466 165.788 129.369 165.691C129.273 165.595 129.198 165.483 129.146 165.357C129.094 165.231 129.068 165.1 129.068 164.963V136.857C129.068 136.72 129.094 136.59 129.146 136.463C129.198 136.337 129.273 136.226 129.369 136.129C129.466 136.032 129.577 135.958 129.704 135.906C129.83 135.854 129.96 135.828 130.098 135.828Z" fill="#D5D7DB" fill-opacity="0.6"/>
<path opacity="0.4" d="M130.105 77.0375H147.902C148.036 77.0375 148.17 77.0635 148.296 77.1192C148.423 77.1712 148.534 77.2455 148.631 77.3421C148.727 77.4388 148.802 77.5502 148.854 77.6766C148.906 77.8029 148.932 77.9329 148.932 78.0704V131.61C148.932 131.748 148.906 131.881 148.854 132.008C148.802 132.134 148.727 132.246 148.631 132.342C148.534 132.439 148.423 132.513 148.296 132.565C148.17 132.617 148.036 132.643 147.902 132.643H130.105C129.968 132.643 129.838 132.617 129.711 132.565C129.585 132.513 129.474 132.439 129.377 132.342C129.28 132.246 129.206 132.134 129.154 132.008C129.102 131.881 129.072 131.748 129.072 131.61V78.0704C129.072 77.9329 129.102 77.8029 129.154 77.6766C129.206 77.5502 129.28 77.4388 129.377 77.3421C129.474 77.2455 129.585 77.1712 129.711 77.1192C129.838 77.0635 129.968 77.0375 130.105 77.0375Z" fill="#D5D7DB" fill-opacity="0.6"/>
<path opacity="0.4" d="M152.107 78.3177C152.107 77.6148 152.683 77.045 153.393 77.045H170.678C171.388 77.045 171.963 77.6148 171.963 78.3177V114.698C171.963 115.401 171.388 115.971 170.678 115.971H153.393C152.683 115.971 152.107 115.401 152.107 114.698V78.3177Z" fill="#D5D7DB" fill-opacity="0.6"/>
<path d="M153.131 119.155H170.928C171.062 119.155 171.195 119.181 171.322 119.233C171.448 119.286 171.56 119.36 171.656 119.456C171.753 119.553 171.827 119.665 171.879 119.791C171.931 119.917 171.957 120.047 171.957 120.185V164.967C171.957 165.104 171.931 165.234 171.879 165.36C171.827 165.487 171.753 165.598 171.656 165.695C171.56 165.791 171.448 165.866 171.322 165.918C171.195 165.974 171.062 166 170.928 166H153.131C152.993 166 152.863 165.974 152.737 165.918C152.611 165.866 152.499 165.791 152.403 165.695C152.306 165.598 152.232 165.487 152.18 165.36C152.128 165.234 152.102 165.104 152.102 164.967V120.185C152.102 120.047 152.128 119.917 152.18 119.791C152.232 119.665 152.306 119.553 152.403 119.456C152.499 119.36 152.611 119.286 152.737 119.233C152.863 119.181 152.993 119.155 153.131 119.155Z" fill="#D5D7DB" fill-opacity="0.6"/>
<path d="M194.99 98.7639V165.992H175.135V98.7639" fill="#D5D7DB" fill-opacity="0.6"/>
<path d="M194.955 55.033V72.8313C194.955 72.9687 194.929 73.0988 194.874 73.2251C194.822 73.3515 194.747 73.4629 194.651 73.5595C194.554 73.6562 194.443 73.7305 194.316 73.7825C194.19 73.8345 194.06 73.8605 193.922 73.8605H103.892C103.755 73.8605 103.621 73.8865 103.495 73.9386C103.368 73.9906 103.257 74.0649 103.16 74.1615C103.064 74.2581 102.989 74.3696 102.934 74.4959C102.882 74.626 102.856 74.756 102.856 74.8935V164.944C102.856 165.081 102.83 165.211 102.778 165.338C102.726 165.464 102.651 165.576 102.555 165.672C102.458 165.769 102.347 165.843 102.22 165.895C102.094 165.947 101.964 165.973 101.826 165.973H84.0329C83.8954 165.973 83.7654 165.947 83.6391 165.895C83.5127 165.843 83.4013 165.769 83.3047 165.672C83.2081 165.576 83.1338 165.464 83.078 165.338C83.026 165.211 83 165.081 83 164.944V55.033C83 54.8955 83.026 54.7654 83.078 54.6391C83.13 54.5128 83.2081 54.4013 83.3047 54.3047C83.4013 54.2081 83.5127 54.1338 83.6391 54.0817C83.7654 54.0297 83.8954 54 84.0329 54H193.922C194.06 54 194.194 54.0297 194.316 54.0817C194.443 54.1338 194.554 54.2081 194.654 54.3047C194.751 54.4013 194.825 54.5128 194.877 54.6391C194.929 54.7654 194.955 54.8955 194.955 55.033Z" fill="#D5D7DB" fill-opacity="0.6"/>
<path opacity="0.4" d="M107.068 77.0375H124.865C125.003 77.0375 125.133 77.0635 125.259 77.1192C125.386 77.1712 125.497 77.2455 125.594 77.3421C125.69 77.4388 125.765 77.5502 125.817 77.6766C125.869 77.8029 125.895 77.9329 125.895 78.0704V122.875C125.895 123.012 125.869 123.142 125.817 123.268C125.765 123.395 125.69 123.506 125.594 123.603C125.497 123.699 125.386 123.774 125.259 123.826C125.133 123.878 125.003 123.904 124.865 123.904H107.068C106.931 123.904 106.801 123.878 106.674 123.826C106.548 123.774 106.437 123.699 106.34 123.603C106.243 123.506 106.169 123.395 106.117 123.268C106.065 123.142 106.039 123.012 106.039 122.875V78.0704C106.039 77.9329 106.065 77.8029 106.117 77.6766C106.169 77.5502 106.243 77.4388 106.34 77.3421C106.437 77.2455 106.548 77.1712 106.674 77.1192C106.801 77.0635 106.931 77.0375 107.068 77.0375Z" fill="#D5D7DB" fill-opacity="0.6"/>
<path opacity="0.4" d="M176.174 77.0375H193.971C194.108 77.0375 194.238 77.0635 194.365 77.1192C194.491 77.1712 194.603 77.2455 194.699 77.3421C194.796 77.4388 194.87 77.5502 194.922 77.6766C194.974 77.8029 195 77.9329 195 78.0704V94.5608C195 94.6983 194.974 94.8283 194.922 94.9547C194.87 95.081 194.796 95.1925 194.699 95.2891C194.603 95.3857 194.491 95.46 194.365 95.512C194.238 95.564 194.108 95.59 193.971 95.59H176.174C176.036 95.59 175.906 95.564 175.78 95.512C175.654 95.46 175.542 95.3857 175.445 95.2891C175.349 95.1925 175.275 95.081 175.223 94.9547C175.171 94.8283 175.145 94.6983 175.145 94.5608V78.0704C175.145 77.9329 175.171 77.8029 175.223 77.6766C175.275 77.5502 175.349 77.4388 175.445 77.3421C175.542 77.2455 175.654 77.1712 175.78 77.1192C175.906 77.0635 176.036 77.0375 176.174 77.0375Z" fill="#D5D7DB" fill-opacity="0.6"/>
</svg>
