<svg width="56" height="56" viewBox="0 0 56 56" fill="none" xmlns="http://www.w3.org/2000/svg">
<rect width="56" height="56" fill="#F7483B"/>
<path d="M29.6667 43V47.1667L24.6667 43.8334L19.6667 47.1667V43H18.8333C15.6117 43 13 40.3884 13 37.1667V16.3334C13 13.572 15.2386 11.3334 18 11.3334H41.3333C42.2538 11.3334 43 12.0796 43 13V41.3334C43 42.2539 42.2538 43 41.3333 43H29.6667ZM29.6667 39.6667H39.6667V34.6667H18.8333C17.4526 34.6667 16.3333 35.786 16.3333 37.1667C16.3333 38.5474 17.4526 39.6667 18.8333 39.6667H19.6667V36.3334H29.6667V39.6667ZM39.6667 31.3334V14.6667H18V31.3924C18.2722 31.3535 18.5504 31.3334 18.8333 31.3334H39.6667ZM19.6667 16.3334H23V19.6667H19.6667V16.3334ZM19.6667 21.3334H23V24.6667H19.6667V21.3334ZM19.6667 26.3334H23V29.6667H19.6667V26.3334Z" fill="white"/>
</svg>
