<svg width="657" height="663" viewBox="0 0 657 663" fill="none" xmlns="http://www.w3.org/2000/svg">
    <path d="M274.352 485.507C274.972 485.25 275.605 485.122 276.278 485.122H380.678C381.332 485.122 381.986 485.25 382.605 485.507C383.223 485.764 383.766 486.129 384.24 486.607C384.714 487.085 385.076 487.633 385.332 488.259C385.588 488.888 385.715 489.529 385.715 490.212V656.495C385.715 657.178 385.588 657.82 385.332 658.448C385.076 659.074 384.714 659.622 384.24 660.1C383.766 660.578 383.223 660.943 382.605 661.2L382.988 662.123L382.605 661.2C381.986 661.457 381.332 661.585 380.678 661.585H276.278C275.605 661.585 274.972 661.458 274.352 661.2L273.97 662.119L274.352 661.2C273.733 660.943 273.19 660.578 272.717 660.1L272.006 660.804L272.717 660.1C272.243 659.622 271.88 659.074 271.625 658.448C271.368 657.82 271.241 657.178 271.241 656.495V490.212C271.241 489.529 271.368 488.888 271.625 488.259C271.88 487.633 272.243 487.085 272.717 486.607C273.19 486.129 273.733 485.764 274.352 485.507ZM274.352 485.507L273.979 484.611L274.352 485.507Z" stroke="#DDE1EB" stroke-width="2"/>
    <path d="M382.625 137.696L382.637 137.701L382.648 137.706C383.266 137.963 383.809 138.328 384.283 138.806C384.757 139.284 385.12 139.832 385.375 140.458L386.293 140.083L385.375 140.458C385.632 141.086 385.759 141.727 385.759 142.41V459.172C385.759 459.858 385.63 460.521 385.375 461.146C385.12 461.772 384.757 462.321 384.283 462.798C383.809 463.276 383.266 463.641 382.648 463.898C382.029 464.155 381.375 464.283 380.721 464.283H276.322C275.648 464.283 275.015 464.156 274.395 463.898C273.776 463.641 273.233 463.276 272.76 462.798C272.286 462.321 271.923 461.772 271.668 461.146C271.406 460.504 271.262 459.841 271.262 459.172V142.41C271.262 141.745 271.404 141.104 271.668 140.458L271.668 140.458C271.923 139.832 272.286 139.284 272.76 138.806L272.76 138.806C273.233 138.328 273.776 137.963 274.395 137.706L274.406 137.701L274.418 137.696C275.025 137.426 275.649 137.299 276.322 137.299H380.721C381.374 137.299 382.02 137.427 382.625 137.696Z" stroke="#DDE1EB" stroke-width="2"/>
    <path d="M406.393 142.66C406.393 139.727 408.771 137.349 411.704 137.349H515.557C518.49 137.349 520.868 139.727 520.868 142.66V360.338C520.868 363.271 518.49 365.649 515.557 365.649H411.704C408.771 365.649 406.393 363.271 406.393 360.338V142.66Z" stroke="#DDE1EB" stroke-width="2"/>
    <path d="M407.827 387.967C408.3 387.489 408.843 387.124 409.462 386.867L409.462 386.867C410.082 386.61 410.715 386.482 411.388 386.482H515.788C516.442 386.482 517.096 386.61 517.715 386.867C518.333 387.124 518.876 387.489 519.35 387.967C519.824 388.445 520.186 388.993 520.442 389.619C520.698 390.248 520.825 390.889 520.825 391.572V656.518C520.825 657.201 520.698 657.842 520.442 658.47C520.186 659.096 519.824 659.645 519.35 660.122C518.876 660.6 518.333 660.965 517.715 661.222L517.703 661.227L517.692 661.232C517.086 661.501 516.441 661.629 515.788 661.629H411.388C410.715 661.629 410.092 661.502 409.485 661.232L409.473 661.227L409.462 661.222C408.843 660.965 408.3 660.6 407.827 660.122C407.353 659.645 406.99 659.096 406.735 658.47C406.478 657.842 406.351 657.201 406.351 656.518V391.572C406.351 390.889 406.478 390.248 406.735 389.619C406.99 388.993 407.353 388.445 407.827 387.967ZM407.827 387.967L407.122 387.269L407.827 387.967Z" stroke="#DDE1EB" stroke-width="2"/>
    <path d="M650.63 265.842C653.563 265.842 655.941 268.22 655.941 271.153V656.281C655.941 659.214 653.563 661.591 650.63 661.591H546.777C543.844 661.591 541.466 659.214 541.466 656.281V271.153C541.466 268.22 543.844 265.842 546.777 265.842H650.63Z" stroke="#DDE1EB" stroke-width="2"/>
    <path d="M655.342 113.342L655.337 113.354L655.333 113.365C655.077 113.991 654.714 114.54 654.241 115.018C653.767 115.495 653.224 115.86 652.606 116.117C651.985 116.375 651.352 116.502 650.679 116.502H122.555C121.62 116.502 120.705 116.681 119.84 117.04C118.976 117.399 118.211 117.913 117.552 118.579C116.892 119.245 116.388 120.009 116.016 120.861L116.009 120.877L116.003 120.893C115.653 121.774 115.474 122.668 115.474 123.614V656.386C115.474 657.069 115.347 657.71 115.091 658.338C114.835 658.964 114.473 659.512 113.999 659.99L114.709 660.694L113.999 659.99C113.525 660.468 112.982 660.833 112.364 661.09C111.743 661.348 111.111 661.475 110.437 661.475H6.05911C5.38548 661.475 4.75291 661.348 4.13239 661.09C3.51407 660.833 2.97113 660.468 2.49737 659.99L1.78722 660.694L2.49733 659.99C2.02665 659.516 1.65945 658.965 1.37869 658.326C1.12547 657.702 1 657.064 1 656.386V6.11143C1 5.42846 1.12707 4.78734 1.38353 4.15913C1.63338 3.54711 2.0124 2.99586 2.49736 2.50671L2.49736 2.50671C2.97107 2.0289 3.51402 1.66397 4.13236 1.40715C4.7708 1.142 5.40341 1 6.05911 1H650.679C651.34 1 651.991 1.14419 652.596 1.403V1.40305L652.606 1.40716C653.22 1.66238 653.767 2.02729 654.269 2.51338C654.739 2.98964 655.1 3.53607 655.354 4.15911L656.28 3.78118L655.354 4.15918C655.611 4.78732 655.738 5.42843 655.738 6.11143V111.413C655.738 112.095 655.611 112.727 655.342 113.342ZM656.258 113.743C655.953 114.49 655.517 115.15 654.951" stroke="#DDE1EB" stroke-width="2"/>
    <path d="M247.494 137.696L247.506 137.701L247.517 137.706C248.136 137.963 248.679 138.328 249.152 138.806C249.626 139.284 249.989 139.832 250.244 140.458L251.162 140.083L250.244 140.458C250.501 141.086 250.628 141.727 250.628 142.41V407.488C250.628 408.171 250.501 408.812 250.244 409.441C249.989 410.067 249.626 410.615 249.152 411.093C248.678 411.571 248.136 411.936 247.517 412.193C246.897 412.45 246.264 412.578 245.59 412.578H141.191C140.517 412.578 139.884 412.45 139.264 412.193C138.646 411.936 138.103 411.571 137.629 411.093C137.155 410.615 136.792 410.067 136.537 409.441C136.28 408.812 136.153 408.171 136.153 407.488V142.41C136.153 141.727 136.28 141.086 136.537 140.458L136.537 140.458C136.792 139.832 137.155 139.284 137.629 138.806L137.629 138.806C138.103 138.328 138.646 137.963 139.264 137.706L139.275 137.701L139.287 137.696C139.894 137.426 140.518 137.299 141.191 137.299H245.59C246.263 137.299 246.887 137.426 247.494 137.696Z" stroke="#DDE1EB" stroke-width="2"/>
    <path d="M652.866 137.696L652.878 137.701L652.889 137.706C653.508 137.963 654.051 138.328 654.524 138.806C654.998 139.284 655.361 139.832 655.616 140.458C655.873 141.086 656 141.727 656 142.41V239.974C656 240.657 655.873 241.298 655.616 241.926C655.361 242.552 654.998 243.1 654.524 243.578C654.051 244.056 653.508 244.421 652.889 244.678C652.269 244.936 651.636 245.063 650.963 245.063H546.563C545.889 245.063 545.257 244.936 544.636 244.678C544.018 244.421 543.475 244.056 543.001 243.578C542.527 243.1 542.165 242.552 541.909 241.926C541.653 241.298 541.526 240.657 541.526 239.974V142.41C541.526 141.727 541.653 141.086 541.909 140.458C542.165 139.832 542.527 139.284 543.001 138.806L543.001 138.806C543.475 138.328 544.018 137.963 544.636 137.706L544.648 137.701L544.659 137.696C545.266 137.426 545.89 137.299 546.563 137.299H650.963C651.636 137.299 652.259 137.426 652.866 137.696Z" stroke="#DDE1EB" stroke-width="2"/>
</svg>
