<svg width="60" height="18" viewBox="0 0 60 18" fill="none" xmlns="http://www.w3.org/2000/svg">
<path fill-rule="evenodd" clip-rule="evenodd" d="M59.5 9L59.4995 9.9L59.4991 10.2727L59.4977 10.5587L59.4963 10.7998L59.4941 11.012L59.4918 11.2039L59.4886 11.3802L59.4849 11.5442L59.4813 11.6982L59.4767 11.8437L59.4716 11.982L59.4662 12.114L59.4602 12.2404L59.4543 12.362L59.4474 12.4791L59.4401 12.5923L59.4323 12.7019L59.4241 12.8081L59.4154 12.9112L59.4062 13.0115L59.3966 13.1092L59.3866 13.2043L59.3761 13.2972L59.3646 13.3879L59.3532 13.4766L59.3413 13.5633L59.3289 13.6481L59.3157 13.7313L59.3024 13.8127L59.2887 13.8926L59.2741 13.9709L59.2594 14.0477L59.2439 14.1232L59.2279 14.1974L59.2119 14.2702L59.1949 14.3417L59.1776 14.4121L59.1597 14.4813L59.1414 14.5494L59.1227 14.6163L59.1035 14.6822L59.0838 14.747L59.0637 14.8109L59.0431 14.8738L59.0216 14.9357L59.0001 14.9967L58.9777 15.0567L58.9553 15.1159L58.932 15.1742L58.9082 15.2316L58.8839 15.2883L58.8592 15.3441L58.8341 15.3991L58.8085 15.4533L58.7819 15.5067L58.7554 15.5594L58.728 15.6114L58.7001 15.6626L58.6717 15.7131L58.6429 15.7628L58.6136 15.8119L58.5839 15.8603L58.5533 15.908L58.5226 15.9551L58.4911 16.0014L58.459 16.0472L58.4266 16.0922L58.3932 16.1367L58.3598 16.1805L58.3255 16.2237L58.2907 16.2662L58.2555 16.3082L58.2194 16.3496L58.1828 16.3904L58.1462 16.4305L58.1082 16.4701L58.0703 16.5091L58.0314 16.5476L57.9921 16.5854L57.9523 16.6227L57.9116 16.6594L57.8704 16.6956L57.8288 16.7313L57.7863 16.7663L57.7433 16.8009L57.6998 16.8349L57.6555 16.8683L57.6106 16.9012L57.5653 16.9336L57.5192 16.9655L57.472 16.9969L57.4245 17.0277L57.3765 17.058L57.3275 17.0878L57.2781 17.1171L57.2278 17.1458L57.1766 17.1741L57.1249 17.2018L57.0723 17.2291L57.0193 17.2559L56.9653 17.2821L56.9104 17.3079L56.8551 17.3331L56.7988 17.3579L56.7416 17.3822L56.6836 17.406L56.6245 17.4293L56.5651 17.4521L56.5043 17.4745L56.443 17.4964L56.3803 17.5177L56.3172 17.5386L56.2527 17.559L56.1873 17.579L56.121 17.5985L56.0538 17.6175L55.9852 17.636L55.9156 17.6541L55.8452 17.6717L55.7729 17.6888L55.7002 17.7055L55.6257 17.7216L55.5502 17.7374L55.4729 17.7526L55.3947 17.7674L55.3147 17.7817L55.2332 17.7957L55.1505 17.8091L55.0659 17.822L54.9794 17.8345L54.8916 17.8465L54.8015 17.8581L54.7091 17.8692L54.6149 17.8799L54.5188 17.8901L54.4201 17.8998L54.3185 17.9091L54.2142 17.918L54.1072 17.9263L53.997 17.9343L53.8836 17.9418L53.766 17.9488L53.6444 17.9554L53.5181 17.9615L53.3873 17.9671L53.2501 17.9724L53.107 17.9771L52.9565 17.9815L52.7969 17.9853L52.6272 17.9887L52.4447 17.9917L52.2467 17.9942L52.028 17.9963L51.7797 17.9979L51.487 17.999L51.1097 17.9997L45.8017 18L44.6393 17.9998L44.24 17.9992L43.9375 17.9981L43.6838 17.9965L43.461 17.9946L43.26 17.9921L43.0754 17.9892L42.9038 17.9859L42.7429 17.9821L42.5909 17.9779L42.4464 17.9731L42.3086 17.968L42.1766 17.9624L42.0498 17.9564L41.9276 17.9499L41.8095 17.9429L41.6953 17.9355L41.5845 17.9276L41.4769 17.9193L41.3724 17.9106L41.2706 17.9014L41.1713 17.8917L41.0745 17.8815L40.98 17.8709L40.8876 17.8599L40.7972 17.8484L40.7088 17.8364L40.6222 17.824L40.5373 17.8111L40.4541 17.7978L40.3725 17.784L40.2924 17.7697L40.2138 17.755L40.1366 17.7398L40.0607 17.7242L39.9861 17.7081L39.9128 17.6915L39.8408 17.6744L39.7699 17.6569L39.7001 17.6389L39.6315 17.6205L39.5639 17.6015L39.4974 17.5821L39.4319 17.5623L39.3675 17.5419L39.3039 17.5211L39.2414 17.4998L39.1798 17.478L39.119 17.4557L39.0592 17.433L39.0002 17.4097L38.9421 17.386L38.8848 17.3618L38.8283 17.3371L38.7727 17.312L38.7178 17.2863L38.6637 17.2601L38.6103 17.2334L38.5577 17.2062L38.5059 17.1785L38.4548 17.1504L38.4044 17.1217L38.3547 17.0925L38.3057 17.0628L38.2574 17.0325L38.2098 17.0018L38.1629 16.9705L38.1166 16.9388L38.0709 16.9065L38.0259 16.8736L37.9816 16.8403L37.9379 16.8063L37.8948 16.7719L37.8524 16.7369L37.8105 16.7013L37.7693 16.6653L37.7286 16.6286L37.6886 16.5914L37.6492 16.5536L37.6103 16.5153L37.5721 16.4764L37.5344 16.4369L37.4973 16.3968L37.4607 16.3561L37.4248 16.3148L37.3894 16.273L37.3545 16.2305L37.3202 16.1874L37.2865 16.1437L37.2533 16.0994L37.2206 16.0544L37.1885 16.0087L37.1569 15.9625L37.1259 15.9156L37.0954 15.8679L37.0654 15.8197L37.036 15.7707L37.0071 15.721L36.9786 15.6707L36.9508 15.6196L36.9234 15.5677L36.8966 15.5152L36.8703 15.4619L36.8445 15.4078L36.8191 15.3529L36.7943 15.2972L36.77 15.2407L36.7463 15.1834L36.723 15.1252L36.7002 15.0662L36.6779 15.0063L36.6561 14.9454L36.6348 14.8837L36.614 14.821L36.5937 14.7573L36.5739 14.6926L36.5546 14.6269L36.5358 14.5601L36.5174 14.4922L36.4996 14.4232L36.4822 14.353L36.4653 14.2816L36.4489 14.209L36.433 14.1351L36.4176 14.0599L36.4026 13.9832L36.3881 13.9051L36.3741 13.8255L36.3607 13.7443L36.3476 13.6615L36.335 13.5769L36.323 13.4905L36.3114 13.4022L36.3002 13.3118L36.2896 13.2193L36.2794 13.1245L36.2697 13.0272L36.2605 12.9274L36.2517 12.8247L36.2434 12.719L36.2356 12.61L36.2283 12.4974L36.2214 12.3809L36.215 12.2601L36.209 12.1344L36.2036 12.0034L36.1986 11.8661L36.194 11.7219L36.19 11.5694L36.1864 11.4071L36.1833 11.2329L36.1806 11.0438L36.1784 10.8352L36.1768 10.5996L36.1755 10.3225L36.1747 9.96899L36.1744 9.35914L36.1746 8.17479L36.1752 7.77897L36.1763 7.48318L36.1778 7.2364L36.1799 7.02023L36.1824 6.82551L36.1854 6.64699L36.1888 6.48117L36.1927 6.32574L36.1971 6.17899L36.202 6.03963L36.2073 5.90665L36.213 5.77935L36.2193 5.65704L36.226 5.53923L36.2332 5.42542L36.2409 5.31535L36.249 5.20861L36.2576 5.10502L36.2667 5.00427L36.2763 4.90622L36.2863 4.81064L36.2968 4.7174L36.3078 4.62636L36.3192 4.53739L36.3312 4.45041L36.3436 4.36523L36.3565 4.28184L36.3698 4.20016L36.3837 4.12007L36.398 4.04149L36.4128 3.96437L36.428 3.88868L36.4438 3.81433L36.46 3.74134L36.4768 3.66957L36.494 3.59901L36.5117 3.52962L36.5299 3.4614L36.5485 3.39426L36.5677 3.3282L36.5874 3.26322L36.6075 3.19919L36.6282 3.13618L36.6493 3.07413L36.6709 3.01297L36.693 2.95277L36.7157 2.89345L36.7388 2.835L36.7624 2.77744L36.7866 2.7207L36.8112 2.66476L36.8363 2.60964L36.862 2.55528L36.8881 2.50173L36.9148 2.4489L36.942 2.39683L36.9697 2.34553L36.9979 2.29491L37.0267 2.245L37.056 2.19582L37.0858 2.14736L37.1161 2.09952L37.147 2.05236L37.1784 2.00588L37.2103 1.96006L37.2428 1.91489L37.2758 1.87033L37.3094 1.82642L37.3435 1.78312L37.3782 1.74047L37.4134 1.69839L37.4492 1.65695L37.4855 1.61608L37.5225 1.57581L37.56 1.53612L37.5981 1.49706L37.6368 1.4585L37.676 1.42056L37.7158 1.38316L37.7563 1.34635L37.7973 1.31009L37.839 1.27435L37.8812 1.23921L37.9241 1.20456L37.9676 1.1705L38.0117 1.13697L38.0565 1.10394L38.1019 1.07145L38.148 1.0395L38.1948 1.00809L38.2422 0.977175L38.2903 0.9468L38.339 0.91692L38.3885 0.887535L38.4387 0.85869L38.4896 0.830385L38.5412 0.80253L38.5935 0.775215L38.6466 0.74835L38.7005 0.722025L38.7551 0.696195L38.8105 0.67086L38.8667 0.645975L38.9237 0.62163L38.9816 0.597735L39.0403 0.57438L39.0999 0.551475L39.1603 0.52902L39.2217 0.507105L39.2839 0.48564L39.3471 0.46467L39.4113 0.44415L39.4765 0.424125L39.5426 0.404595L39.6099 0.385515L39.6782 0.366885L39.7475 0.34875L39.8181 0.331065L39.8898 0.313875L39.9627 0.297135L40.0368 0.28089L40.1122 0.265095L40.189 0.24975L40.2672 0.2349L40.3468 0.2205L40.428 0.20655L40.5106 0.19305L40.595 0.18L40.681 0.167445L40.7689 0.15534L40.8586 0.143685L40.9503 0.132525L41.0442 0.12177L41.1403 0.11151L41.2387 0.101655L41.3396 0.0922946L41.4433 0.0833854L41.5499 0.074925L41.6596 0.0669153L41.7727 0.0594L41.8895 0.0522898L42.0103 0.0456302L42.1357 0.039465L42.266 0.0337049L42.4019 0.02844L42.5441 0.0235803L42.6936 0.0192149L42.8515 0.0152547L43.0194 0.0117897L43.1996 0.00872984L43.3949 0.00616522L43.6101 0.00405035L43.8526 0.00233974L44.1366 0.00112524L44.4953 0.000314999L45.0799 0L50.9537 0.000134754L51.3795 0.000674629L51.6928 0.00170975L51.9526 0.00314999L52.1794 0.00508461L52.3839 0.00746984L52.5705 0.0102602L52.7443 0.0135449L52.9066 0.0172803L53.0599 0.0214199L53.2053 0.0260548L53.3443 0.0311402L53.477 0.03663L53.6046 0.0426149L53.7276 0.0490497L53.8465 0.055935L53.9613 0.0632701L54.0725 0.0710549L54.1804 0.0792904L54.2856 0.0879747L54.388 0.0971552L54.4873 0.10674L54.5847 0.11682L54.6794 0.127305L54.7722 0.138285L54.8628 0.149715L54.9515 0.161595L55.0384 0.17397L55.1235 0.18675L55.2072 0.200025L55.289 0.21375L55.3695 0.227925L55.4482 0.242595L55.5255 0.257715L55.6019 0.273285L55.6764 0.28935L55.7501 0.30582L55.8223 0.32283L55.8932 0.340245L55.9632 0.358155L56.0323 0.37656L56.1 0.395415L56.1663 0.41472L56.2321 0.43452L56.2966 0.454815L56.3602 0.47556L56.4233 0.4968L56.4851 0.51849L56.5459 0.540675L56.6058 0.563355L56.6648 0.58653L56.7233 0.610155L56.7805 0.634275L56.8372 0.65889L56.893 0.684L56.9479 0.709605L57.0023 0.735705L57.0558 0.7623L57.1084 0.78939L57.1601 0.81702L57.2113 0.8451L57.2621 0.87372L57.312 0.902835L57.3609 0.932445L57.4094 0.962595L57.457 0.99324L57.5041 1.02443L57.5507 1.05615L57.5965 1.08837L57.6413 1.12113L57.6856 1.15438L57.7295 1.18822L57.773 1.2226L57.8155 1.25748L57.8571 1.29294L57.8988 1.32894L57.9395 1.36553L57.9793 1.4026L58.0191 1.44032L58.0579 1.47856L58.0964 1.5174L58.1339 1.55677L58.1714 1.59678L58.2079 1.63737L58.2441 1.67855L58.2793 1.72031L58.3145 1.7627L58.3488 1.80567L58.3827 1.84928L58.416 1.89351L58.4485 1.93842L58.481 1.98392L58.5126 2.03008L58.5437 2.07693L58.5743 2.1244L58.6045 2.1726L58.6338 2.22143L58.663 2.27097L58.6914 2.32124L58.7193 2.37222L58.7467 2.42392L58.7737 2.47639L58.7998 2.52958L58.8258 2.58354L58.8515 2.6383L58.8762 2.69383L58.9004 2.75022L58.9246 2.80742L58.948 2.86542L58.9708 2.92433L58.9928 2.98413L59.0147 3.04479L59.0362 3.10639L59.0573 3.16895L59.0774 3.23248L59.0975 3.29701L59.1167 3.36258L59.1355 3.42918L59.1542 3.49691L59.1721 3.56571L59.1894 3.63568L59.2064 3.70687L59.2228 3.77933L59.2388 3.85299L59.2544 3.92805L59.2695 4.00446L59.2841 4.08231L59.2978 4.16169L59.3116 4.2426L59.3248 4.32517L59.3372 4.40951L59.3495 4.49559L59.3614 4.58361L59.3724 4.67366L59.3834 4.76581L59.3934 4.86023L59.403 4.95711L59.4126 5.05651L59.4213 5.15875L59.4296 5.26397L59.4378 5.37241L59.4451 5.48438L59.452 5.6002L59.4584 5.72036L59.4643 5.84518L59.4698 5.97537L59.4748 6.11154L59.4799 6.25459L59.484 6.4057L59.4877 6.56631L59.4909 6.73843L59.4936 6.92491L59.4954 7.12998L59.4973 7.36065L59.4986 7.62966L59.4995 7.96657L59.5 8.49204V9ZM45.7791 13.95H49.438C52.9044 13.95 54.9264 11.8286 54.9264 8.97169C54.9264 6.08656 52.9318 4.05 49.4929 4.05H45.7791V13.95ZM43.9496 13.95H41.2054V4.05H43.9496V13.95ZM10.5412 9C10.5412 11.7305 8.53013 14.175 5.50636 14.175C2.48257 14.175 0.5 11.759 0.5 9C0.5 6.26954 2.5111 3.825 5.5349 3.825C8.55867 3.825 10.5412 6.24096 10.5412 9ZM1.27021 9C1.27021 11.4732 3.06736 13.5031 5.5349 13.5031C8.00238 13.5031 9.771 11.5017 9.771 9C9.771 6.52684 7.97388 4.49689 5.50636 4.49689C3.03883 4.49689 1.27021 6.49827 1.27021 9ZM14.0136 13.95H13.3062V4.05H13.9995L20.8332 12.663V4.05H21.5406V13.95H20.9888L14.0136 5.15313V13.95ZM31.6008 13.95H24.4841V4.05H31.53V4.72887H25.2198V8.61813H30.8934V9.297H25.2198V13.2711H31.6008V13.95ZM49.9859 12.215C50.2558 12.2074 50.5631 12.1727 50.8759 12.0948C50.9134 12.0856 50.9514 12.0758 50.9907 12.0651C51.2322 11.9992 51.4938 11.9022 51.7628 11.7398C51.8286 11.7012 51.8927 11.6598 51.9558 11.6153L51.9535 11.6144C52.1451 11.4773 52.339 11.3039 52.5316 11.0822C52.6103 10.9912 52.7461 10.799 52.8229 10.6499C52.645 10.4643 52.3743 10.3116 52.1204 10.1774L52.0934 10.163C51.9759 10.1006 51.7628 9.98771 51.5643 9.91125C51.5432 9.90315 51.5208 9.89514 51.4984 9.88695C51.3269 9.82471 51.1261 9.75195 51.106 9.55138C51.0904 9.39663 51.17 9.29997 51.2652 9.18477C51.288 9.15709 51.3118 9.12838 51.3351 9.09747C51.6123 8.73333 51.873 8.23657 51.8259 7.56405C51.7797 6.9039 51.3502 6.39126 50.6317 6.31215C50.5485 6.30302 50.4675 6.29906 50.3888 6.30018C50.3102 6.29906 50.2288 6.30302 50.1455 6.31215C49.427 6.39126 48.9975 6.9039 48.9513 7.56405C48.9042 8.23657 49.1649 8.73333 49.4421 9.09747C49.4659 9.12838 49.4892 9.15709 49.5121 9.18477C49.6072 9.29997 49.6868 9.39663 49.6712 9.55138C49.6511 9.75195 49.4503 9.82471 49.2788 9.88695C49.2564 9.89514 49.2345 9.90315 49.2134 9.91125C49.0145 9.98771 48.8018 10.1006 48.6838 10.163L48.6568 10.1774C48.2799 10.3766 47.8665 10.6163 47.7736 10.9441C47.6598 11.3451 47.5985 11.8485 47.6099 12.215H48.2534C48.4327 12.215 48.617 12.2168 48.805 12.2187C49.191 12.2224 49.5912 12.2262 49.9859 12.215Z" fill="white"/>
</svg>
