<svg width="163" height="164" viewBox="0 0 163 164" fill="none" xmlns="http://www.w3.org/2000/svg">
<g opacity="0.04">
<path d="M68.3788 119.82H94.2178C94.412 119.82 94.6062 119.858 94.7896 119.934C94.973 120.011 95.1348 120.119 95.2751 120.261C95.4153 120.402 95.5232 120.566 95.5987 120.751C95.6742 120.936 95.712 121.126 95.712 121.327V162.483C95.712 162.684 95.6742 162.874 95.5987 163.059C95.5232 163.244 95.4153 163.408 95.2751 163.549C95.1348 163.69 94.973 163.799 94.7896 163.875C94.6062 163.952 94.412 163.99 94.2178 163.99H68.3788C68.1792 163.99 67.9904 163.952 67.807 163.875C67.6236 163.799 67.4618 163.69 67.3215 163.549C67.1813 163.408 67.0734 163.244 66.9979 163.059C66.9223 162.874 66.8846 162.684 66.8846 162.483V121.327C66.8846 121.126 66.9223 120.936 66.9979 120.751C67.0734 120.566 67.1813 120.402 67.3215 120.261C67.4618 120.119 67.6236 120.011 67.807 119.934C67.9904 119.858 68.1792 119.82 68.3788 119.82Z" fill="white"/>
<path opacity="0.4" d="M68.3895 33.7344H94.2284C94.4226 33.7344 94.6168 33.7725 94.8002 33.8541C94.9836 33.9302 95.1454 34.0391 95.2857 34.1805C95.4259 34.322 95.5338 34.4852 95.6094 34.6702C95.6849 34.8552 95.7226 35.0456 95.7226 35.247V113.645C95.7226 113.847 95.6849 114.043 95.6094 114.228C95.5338 114.413 95.4259 114.576 95.2857 114.717C95.1454 114.859 94.9836 114.967 94.8002 115.044C94.6168 115.12 94.4226 115.158 94.2284 115.158H68.3895C68.1899 115.158 68.0011 115.12 67.8177 115.044C67.6343 114.967 67.4724 114.859 67.3322 114.717C67.1919 114.576 67.084 114.413 67.0085 114.228C66.933 114.043 66.8898 113.847 66.8898 113.645V35.247C66.8898 35.0456 66.933 34.8552 67.0085 34.6702C67.084 34.4852 67.1919 34.322 67.3322 34.1805C67.4724 34.0391 67.6343 33.9302 67.8177 33.8541C68.0011 33.7725 68.1899 33.7344 68.3895 33.7344Z" fill="white"/>
<path opacity="0.4" d="M100.335 35.307C100.335 34.4444 101.034 33.7451 101.897 33.7451H127.6C128.463 33.7451 129.162 34.4444 129.162 35.307V89.1824C129.162 90.045 128.463 90.7443 127.6 90.7443H101.897C101.034 90.7443 100.335 90.045 100.335 89.1824V35.307Z" fill="white"/>
<path d="M101.819 95.4082H127.658C127.852 95.4082 128.046 95.4463 128.229 95.5225C128.413 95.5986 128.575 95.7075 128.715 95.8489C128.855 95.9904 128.963 96.1536 129.039 96.3386C129.114 96.5236 129.152 96.714 129.152 96.9153V162.489C129.152 162.691 129.114 162.881 129.039 163.066C128.963 163.251 128.855 163.414 128.715 163.556C128.575 163.697 128.413 163.806 128.229 163.882C128.046 163.964 127.852 164.002 127.658 164.002H101.819C101.619 164.002 101.43 163.964 101.247 163.882C101.064 163.806 100.902 163.697 100.761 163.556C100.621 163.414 100.513 163.251 100.438 163.066C100.362 162.881 100.324 162.691 100.324 162.489V96.9153C100.324 96.714 100.362 96.5236 100.438 96.3386C100.513 96.1536 100.621 95.9904 100.761 95.8489C100.902 95.7075 101.064 95.5986 101.247 95.5225C101.43 95.4463 101.619 95.4082 101.819 95.4082Z" fill="white"/>
<path d="M161.031 65.5479C161.893 65.5479 162.593 66.2471 162.593 67.1098V162.429C162.593 163.291 161.893 163.991 161.031 163.991H135.327C134.465 163.991 133.765 163.291 133.765 162.429V67.1098C133.765 66.2471 134.465 65.5479 135.327 65.5479H161.031Z" fill="white"/>
<path d="M162.543 1.51258V27.5747C162.543 27.776 162.505 27.9664 162.424 28.1514C162.348 28.3364 162.241 28.4996 162.1 28.6411C161.96 28.7825 161.798 28.8914 161.615 28.9675C161.431 29.0437 161.243 29.0818 161.043 29.0818H30.3324C30.1328 29.0818 29.9387 29.1199 29.7552 29.1961C29.5718 29.2722 29.41 29.381 29.2698 29.5225C29.1295 29.664 29.0216 29.8272 28.9407 30.0122C28.8652 30.2026 28.8274 30.3931 28.8274 30.5944V162.455C28.8274 162.657 28.7897 162.847 28.7141 163.032C28.6386 163.217 28.5307 163.38 28.3905 163.522C28.2502 163.663 28.0884 163.772 27.905 163.848C27.7216 163.924 27.5328 163.963 27.3332 163.963H1.49963C1.30004 163.963 1.11124 163.924 0.927828 163.848C0.744421 163.772 0.582589 163.663 0.442337 163.522C0.302083 163.38 0.194197 163.217 0.113281 163.032C0.0377611 162.847 0 162.657 0 162.455V1.51258C0 1.31127 0.0377611 1.12083 0.113281 0.935841C0.188803 0.750848 0.302083 0.587622 0.442337 0.446157C0.582589 0.304692 0.744421 0.195874 0.927828 0.119701C1.11124 0.0435268 1.30004 0 1.49963 0H161.043C161.243 0 161.437 0.0435268 161.615 0.119701C161.798 0.195874 161.96 0.304692 162.106 0.446157C162.246 0.587622 162.354 0.750848 162.429 0.935841C162.505 1.12083 162.543 1.31127 162.543 1.51258Z" fill="white"/>
<path opacity="0.4" d="M34.9446 33.7344H60.7836C60.9832 33.7344 61.172 33.7725 61.3554 33.8541C61.5388 33.9302 61.7006 34.0391 61.8409 34.1805C61.9811 34.322 62.089 34.4852 62.1645 34.6702C62.24 34.8552 62.2778 35.0456 62.2778 35.247V100.854C62.2778 101.055 62.24 101.245 62.1645 101.43C62.089 101.615 61.9811 101.779 61.8409 101.92C61.7006 102.062 61.5388 102.17 61.3554 102.247C61.172 102.323 60.9832 102.361 60.7836 102.361H34.9446C34.745 102.361 34.5562 102.323 34.3728 102.247C34.1894 102.17 34.0276 102.062 33.8873 101.92C33.7471 101.779 33.6392 101.615 33.5637 101.43C33.4881 101.245 33.4504 101.055 33.4504 100.854V35.247C33.4504 35.0456 33.4881 34.8552 33.5637 34.6702C33.6392 34.4852 33.7471 34.322 33.8873 34.1805C34.0276 34.0391 34.1894 33.9302 34.3728 33.8541C34.5562 33.7725 34.745 33.7344 34.9446 33.7344Z" fill="white"/>
<path opacity="0.4" d="M135.274 33.7344H161.113C161.313 33.7344 161.502 33.7725 161.685 33.8541C161.869 33.9302 162.03 34.0391 162.171 34.1805C162.311 34.322 162.419 34.4852 162.494 34.6702C162.57 34.8552 162.608 35.0456 162.608 35.247V59.3938C162.608 59.5951 162.57 59.7856 162.494 59.9706C162.419 60.1556 162.311 60.3188 162.171 60.4602C162.03 60.6017 161.869 60.7105 161.685 60.7867C161.502 60.8629 161.313 60.901 161.113 60.901H135.274C135.075 60.901 134.886 60.8629 134.703 60.7867C134.519 60.7105 134.357 60.6017 134.217 60.4602C134.077 60.3188 133.969 60.1556 133.893 59.9706C133.818 59.7856 133.78 59.5951 133.78 59.3938V35.247C133.78 35.0456 133.818 34.8552 133.893 34.6702C133.969 34.4852 134.077 34.322 134.217 34.1805C134.357 34.0391 134.519 33.9302 134.703 33.8541C134.886 33.7725 135.075 33.7344 135.274 33.7344Z" fill="white"/>
</g>
</svg>
